<?xml version="1.0" encoding="utf-8"?>
<!-- Generator: Adobe Illustrator 26.0.3, SVG Export Plug-In . SVG Version: 6.00 Build 0)  -->
<svg version="1.1" id="Layer_3" xmlns="http://www.w3.org/2000/svg" xmlns:xlink="http://www.w3.org/1999/xlink" x="0px" y="0px"
	 viewBox="0 0 141.34 37.86" style="enable-background:new 0 0 141.34 37.86;" xml:space="preserve">
<style type="text/css">
	.st0{clip-path:url(#SVGID_00000135682242647130747220000010824613537619568274_);fill:#5AB1C7;}
	.st1{clip-path:url(#SVGID_00000135682242647130747220000010824613537619568274_);}
	.st2{fill:#2F6E24;}
</style>
<g>
	<defs>
		<rect id="SVGID_1_" width="141.34" height="37.86"/>
	</defs>
	<clipPath id="SVGID_00000178205050775843901630000006407858699135425423_">
		<use xlink:href="#SVGID_1_"  style="overflow:visible;"/>
	</clipPath>
	
		<ellipse transform="matrix(0.7071 -0.7071 0.7071 0.7071 -52.8482 73.6066)" style="clip-path:url(#SVGID_00000178205050775843901630000006407858699135425423_);fill:#5AB1C7;" cx="62.43" cy="100.6" rx="100.58" ry="100.58"/>
	<g style="clip-path:url(#SVGID_00000178205050775843901630000006407858699135425423_);">
		<path class="st2" d="M45.44,85.34c-0.01,0.01-0.01,0.01-0.01,0.01c0,0,0,0,0,0c0,0,0,0,0,0c0,0,0,0,0,0c0,0,0,0,0,0c0,0,0,0,0,0
			l0,0c0,0,0,0,0,0c-0.47,0.58-0.24,1.34-0.05,1.74c0.04,0.09,0.14,0.19,0.23,0.23c0.17,0.07,0.48,0.17,0.97,0.25
			c0.27,0.04,0.9,0.12,1.07-0.11c0.04-0.08,0.14-0.29-0.86-1.29c-0.47-0.47-1.06-0.94-1.3-0.87C45.46,85.32,45.45,85.33,45.44,85.34
			z"/>
		<path class="st2" d="M35.63,97.28c0,0.01-0.01,0.01-0.01,0.02c-0.04,0.07-0.06,0.14-0.05,0.21c0,0.03,0.01,0.17-0.2,0.48
			c-0.38,0.56-0.98,0.96-1.23,1.61c-0.17,0.43,0.05,0.86,0.22,0.91c0.38,0.11,1.07-0.94,1.11-1.02c0,0,0,0,0,0c0,0,0-0.01,0-0.01
			c0,0-0.01,0-0.01,0c0,0,0,0,0,0c0.12-0.28,0.37-0.47,0.51-0.73c-0.02-0.16,0.15-0.3,0.64-0.55c0.44-0.23,0.67-0.35,0.67-0.53
			c-0.05-0.34-0.6-0.31-1.03-0.28c-0.52,0.03-0.56,0.03-0.62-0.06C35.62,97.31,35.62,97.29,35.63,97.28z"/>
		<polygon class="st2" points="35.63,97.27 35.63,97.28 35.63,97.28 		"/>
		<path class="st2" d="M47.31,86.32c0.04,0.05,0.09,0.06,0.32,0.09c-0.25-0.24-0.51-0.48-0.76-0.73
			C46.94,85.81,47.07,86.01,47.31,86.32z"/>
		<path class="st2" d="M50.12,143.74L50.12,143.74c0-0.01-0.01-0.02-0.01-0.03c0,0,0,0,0,0C50.1,143.72,50.11,143.73,50.12,143.74z"
			/>
		<path class="st2" d="M48.32,87.02c0.32-0.39,0.84-0.17,1.39,0.06c0.66,0.28,1.09,0.43,1.46,0.1c0.11-0.11,0.16-0.2,0.25-0.37
			c-0.32-0.32-0.85-0.85-0.56-0.88c0.01,0,0.02,0,0.03,0c-0.26-0.03-0.39-0.02-0.57,0.04c0.15-0.12,0.26-0.17,0.43-0.23
			c-0.2-0.15-0.44-0.34-0.58-0.35c-0.01,0.01-0.01,0.02-0.02,0.02c0.01,0.01,0.03,0.03,0.04,0.04c0.04,0.37-0.03,0.56-0.24,0.93
			c0.14-0.4-0.37-0.96-0.37-0.96c-0.02-0.01-2.2-0.93-2.75-0.67c-0.43,0.21,0.04,0.93,0.05,0.94c0.25,0.24,0.5,0.48,0.76,0.73
			C47.91,86.47,48.05,86.59,48.32,87.02z"/>
		<path class="st2" d="M-0.96,145.61c0.24-0.32,0.33-0.56,0.57-2.15c0.48-3.05,0.89-3.3,1.75-1.07c0.46-0.15,0.88-0.29,1.03-1.44
			c0.2-1.56-0.28-3.09-0.25-4.65c0.04-2.12,1.89-3.45,2.34-5.4c0.2-0.89-0.04-1.36-0.15-1.57c-0.11-0.18-0.16-0.27-0.37-0.48
			c-0.08,0.41-0.49,1.49-0.74,1.7c0,0-0.01,0-0.01,0c-0.18,0.8-0.49,1.45-1.73,3.91c-3.19,6.31-3.8,8.82-3.76,9.81
			c0.23-0.44,0.43-0.65,0.86-0.9C-0.96,144.06-1.64,144.98-0.96,145.61z"/>
		<path class="st2" d="M8.65,153.43c0.01,0.05,0.05,0.11,0.19,0.13c0,0,0.01,0,0.02,0c0.01-0.06,0.02-0.21-0.05-0.27
			C8.71,153.24,8.63,153.35,8.65,153.43z"/>
		<path class="st2" d="M7.84,153.97c0.03-0.02,0.06-0.04,0.09-0.06c0.01-0.01,0.02-0.02,0.03-0.02c-0.02,0-0.05-0.01-0.07-0.02
			c-0.2-0.04-0.41-0.08-0.55-0.03c-0.02-0.04-0.04-0.09-0.06-0.12C7.18,154.19,7.36,154.28,7.84,153.97z"/>
		<path class="st2" d="M9,153.06c0.06,0.06,0.12,0.09,0.15,0.08c0.04-0.02-0.01-0.14-0.09-0.25l-0.03,0
			C8.82,152.89,8.96,153.03,9,153.06z"/>
		<path class="st2" d="M10.53,151.68c-0.03,0.07-0.1,0.24,0.02,0.33c0.03,0.02,0.08,0.03,0.14-0.03c0.11-0.09,0.28-0.43,0.15-0.64
			c0,0-0.01,0-0.01,0C10.72,151.35,10.58,151.55,10.53,151.68z"/>
		<path class="st2" d="M-19.26,141.89C-19.26,141.9-19.26,141.9-19.26,141.89c0.01-0.04,0.02-0.07,0.01-0.12
			C-19.26,141.82-19.26,141.86-19.26,141.89z"/>
		<path class="st2" d="M-4.43,150.87c2.6,2.58,4.52,3.17,5.04,3.29c-0.13-0.65-0.8-1.13-0.58-1.89c0,0.01,0,0.02,0,0.03
			c0.14,0.35,0.4,0.51,1.33,0.32c0.01,0.01,0.01,0.02,0.02,0.03c0.49,0.43,0.49,0.43,1.15,0.46c0.67,0.03,0.67,0.03,1.13,0.15
			c-1.65-0.95-1.65-0.95-1.91-0.95c-0.03,0.04-0.06,0.08-0.09,0.12c-0.09,0.01-0.2,0.02-0.29,0.03l-0.05,0.03
			c-0.14-0.14-0.63-0.61-1.11-0.69c0.03-0.08,0.07-0.18,0.09-0.25c-1.27-0.13-1.87-2.44-2.85-6.28c-0.03,0.13-0.08,0.31-0.11,0.44
			c-0.51,0.64-1.32,0.93-1.79,1.61c-0.14,0.2,0.01,0.58,0.11,0.81c-0.36-0.34-0.87-0.79-1.31-0.99c-0.1,0.04-0.23,0.1-0.33,0.15
			c-0.49,1.5,0.57,3.11,0.89,3.33c0.11,0.04,0.11,0.03,0.12,0.03c-0.04,0.23-0.04,0.32,0,0.71c-0.13,0.09-0.13,0.09-0.23,0.35
			c-0.11-0.55-0.36-1.07-0.5-1.61c0.29,3.99-2.94,3.33-3.79,2.53c-0.39-0.37-0.34-1.16-1.1-1.18c-0.29-0.01-0.84,0.13-1.25,1.12
			c-1.52-3.65-5.85-6.66-6.7-7.22c-0.53-0.33-0.7-0.33-0.61,0.33c0.07,0.53,0.05,0.61-0.05,0.74c0.27,0.1,0.28,0.13,0.29,0.24
			c0.03,0.37-0.04,0.74-0.03,1.1c0.02,0.72,0.13,1.46,0.24,1.82c0.12,0.42,0.48,1.02,0.92,0.86c0.39-0.14,0.94-1.12,0.54-2.82
			c-0.1-0.37-0.14-0.46-0.3-0.83c0.83,0.58,4.3,4.92,4.49,6.12c-0.61-0.63-0.91-0.84-1.8-1.45c-0.92-0.64-1.44-1.1-2.06-2.07
			c0.57,1.12,0.86,1.94,1.02,2.82c0.36,0.2,0.8,0.19,1.12,0.47c0.23,0.2,0.45,0.79,0.53,0.98c0.15-0.03,0.35-0.07,0.67-0.15
			c0.03-0.01,0.07-0.02,0.1-0.02c0.09-0.02,0.21-0.05,0.3-0.08c0.06,0.08,0.06,0.08,0.05,0.57c0.01,0.21,0.03,0.85,0.92,1.28
			c0,0,0,0,0.01,0c0.75,0.33,1.08,0.25,1.19,0.22c0.15,0.28,0.29,0.48,0.63,0.93c0,0.01,0.01,0.01,0.01,0.02
			c0.01,0.01,0.01,0.01,0.02,0.02c0.01,0.01,0.01,0.01,0.02,0.02c0,0.01,0.01,0.01,0.02,0.02c0.01,0.01,0.01,0.01,0.01,0.02
			c0.01,0.01,0.01,0.01,0.02,0.02c0,0.01,0.01,0.01,0.02,0.02c0,0.01,0.01,0.01,0.01,0.02c0.39,0.49,0.47,0.61,0.67,0.91
			c0.26-0.44,0.61-0.16,0.77,0.21c-0.09-0.05-0.22-0.08-0.32-0.08c0.05,0.75,0.05,0.75,1,0.6c0.12,0.11,0.16,0.15,0.29,0.55
			c0.09-0.12,0.14-0.26,0.25-0.35c0.06,0.04,0.13,0.09,0.19,0.13c0.02,0.36-0.29,0.65-0.19,1.02c0.09,0.33,0.14,0.34,0.59,0.45
			c0.86-0.54,0.87-2.21,0.85-2.34c-0.06,0.05-0.14,0.13-0.17,0.2C-4.16,152.62-4.16,152.62-4.43,150.87z"/>
		<path class="st2" d="M10.09,152.41c0.05-0.04,0.05-0.1,0.06-0.13c0,0,0,0,0,0c0,0,0,0,0,0c0,0,0,0,0,0c0,0,0,0,0,0c0,0,0,0,0,0
			c0,0,0,0,0,0c0,0,0,0,0,0c0,0,0,0,0,0c-0.07-0.07-0.19-0.02-0.39,0.15C9.91,152.49,10.03,152.47,10.09,152.41z"/>
		<path class="st2" d="M4.7,153.79c0.3,0.21,0.76,0.45,1.21,0.1c0.01-0.01,0.02-0.02,0.03-0.03c-0.07-0.1-0.07-0.1-0.13-0.16
			c-0.19-0.15-0.4-0.22-0.65-0.21c0.02-0.01,0.05-0.01,0.06-0.04C5.18,153.46,5.12,153.46,4.7,153.79z"/>
		<path class="st2" d="M61.01,82.25c0.09-0.14,0.15-0.19,0.24-0.2c-0.26-0.61-0.48-0.64-0.79-0.12c0.01-0.06,0.03-0.13,0.05-0.19
			c-0.08-0.07-0.12-0.05-0.15-0.02c-0.03-0.23-0.12-0.76-0.36-0.39c-0.06,0.1-0.11,0.23-0.16,0.33c0.2,0.2,0.35,0.29,0.5,0.08
			c-0.04,0.08-0.06,0.16-0.06,0.34c0.02,0.01,0.06,0.03,0.08,0.04c-0.09,0.18-0.17,0.36-0.26,0.54c0.21,0.56,0.45,1.09,0.86,1.02
			c0.11-0.04,0.45-0.17,0.77-1.23c-0.1-0.07-0.14-0.09-0.17-0.08c0,0,0,0-0.01-0.01c-0.11,0.09-0.33,0.27-0.64,0.19
			C61.08,82.37,61.08,82.37,61.01,82.25z M59.87,81.65C59.88,81.65,59.88,81.65,59.87,81.65c0.03-0.01,0.06-0.03,0.09-0.04
			C59.93,81.63,59.91,81.64,59.87,81.65z"/>
		<path class="st2" d="M51.72,66.86c0.79,0.85,1.68,1.6,2.41,2.5c-0.38,0.53-0.25,1.78,0.32,3.1c-0.56-0.31-0.57,0.69-0.57,1.96
			c-0.01,1.5-0.28,1.69-0.81,2.08c-0.28,0.2-0.52,0.37-0.63,0.8c-0.04,0.16-0.04,0.38-0.06,0.54c1.13,0.08,1.71-0.18,1.91-0.26
			c0.24-0.15,0.4-0.29,0.45-0.41c0.02-0.06,0.06-0.14,0.08-0.2c0.11-0.32-0.11-0.65,0-0.97c0.26-0.77,0.82-1.4,1.06-2.18
			c-0.36-0.43-0.36-0.43-0.22-1.53c0.05-0.41-0.12-0.79-0.15-1.18c0-0.07,0.04-0.16,0.06-0.24c0-0.02,0.31-2.12,0.12-2.99
			c-0.12-0.53-0.69-0.33-1-0.56c0.11-0.17,0.38-0.58-0.42-0.82c0.02,0.34,0.31,0.58,0.35,0.92C52.85,65.54,51.8,65.34,51.72,66.86z"
			/>
		<path class="st2" d="M58,85.09c0.16-0.19,0.04-0.5,0.29-0.65c-0.02-0.04-0.21-0.42-0.36-0.3c0.04-0.18,0.1-0.35,0.14-0.53
			c0,0,0,0,0,0c0,0,0,0,0,0l0,0l0,0l0,0l0,0c0,0,0,0,0,0l0,0c0.06-0.04,0.13-0.09,0.36-0.66c-0.03-0.07-0.08-0.15-0.11-0.22
			c0.1,0.04,0.16,0.04,0.24,0.01c-0.05,0.22-0.07,0.36-0.09,0.59c0.24,0.16,0.38,0.21,0.59,0.21c-0.08,0.08-0.15,0.28-0.17,0.47
			c-0.33-0.22-0.49-0.23-0.47-0.04c0,0.01,0.07,0.26,0.14,0.32c0.01,0.01,0.02,0.02,0.03,0.02c0.06,0.05,0.14-0.03,0.2,0.02
			c0.04,0.03,0.09,0.09,0.12,0.13c0.3,0.31,0.36,0.36,0.4,0.37c0,0,0.01-0.01,0.01-0.02c-0.01-0.08-0.01-0.08-0.23-0.51
			c0.04-0.06,0.13-0.21,0.2-0.78c0.18,0,0.26-0.08,0.28-0.1c0.01,0,0.03,0,0.05,0.01l0-0.15c-0.14-0.29-0.13-0.31-0.11-0.34
			c0.04,0.01,0.07,0.03,0.14,0.11c-0.04-0.13-0.06-0.15-0.15-0.35c0.01,0,0.01-0.01,0.02-0.02c0.16,0.1,0.28,0.14,0.44,0.05
			c-0.09-0.27-0.16-0.43-0.26-0.67c-0.16,0.05-0.25,0.09-0.46,0.18c-0.02-0.01-0.04-0.03-0.05-0.05c-0.09-0.12-0.28-0.07-0.28-0.07
			c-0.22-0.4-0.38-0.13-0.4-0.1c0.06,0.16,0.1,0.24,0.18,0.33c-0.01,0.03-0.03,0.07-0.05,0.1c-0.17-0.15-0.54-0.47-0.51-0.04
			c0,0.05,0.02,0.12,0.02,0.17c-0.07,0.09-0.08,0.21-0.1,0.64c-0.23-0.42-0.46-0.75-0.58-0.35c-0.13,0.42-0.08,0.85-0.12,1.28
			c-0.04-0.1-0.08-0.23-0.12-0.32c-0.07-0.26-0.11-0.4-0.14-0.45c0,0-0.01,0.01-0.02,0.01c-0.01,0.05-0.01,0.06,0,0.16
			c-0.02-0.01-0.06-0.04-0.07,0.04l0.11,0.28l0.03,0.07c0.16,0.36,0.22,0.48,0.26,0.54c0.01,0,0.01,0,0.02-0.01
			c0.2,0.22,0.26,0.16,0.44,0c0.04,0.17,0.09,0.4,0.13,0.57C57.99,85.07,57.99,85.08,58,85.09z"/>
		<path class="st2" d="M76.7,62.52c0-0.01,0-0.02-0.01-0.04C76.7,62.5,76.7,62.51,76.7,62.52C76.7,62.52,76.7,62.52,76.7,62.52z"/>
		<path class="st2" d="M98.04,26.73c0.06,0.01,0.13,0.03,0.19,0.04c1.11,0.09,1.71-0.72,1.59-0.82l0,0l0,0c0,0,0,0,0,0l0,0l0,0
			c0.17-0.34,0.1-0.57-0.34-0.98c-0.2,0.1-0.81,0.39-1.21,1.15C98.14,26.39,98.07,26.62,98.04,26.73z"/>
		<path class="st2" d="M76.69,62.44C76.69,62.44,76.69,62.44,76.69,62.44c0,0.02,0,0.03,0.01,0.04
			C76.69,62.47,76.69,62.46,76.69,62.44z"/>
		<path class="st2" d="M101.23,25.29c-0.03-0.16-0.02-0.31,0.08-0.86c0.12-0.64,0.3-1.61-0.12-1.96c-0.63-0.51-1.84,0.04-2.39,0.85
			c-0.02,0.02-0.04,0.06-0.05,0.08c-0.28,0.48-0.15,0.84,0.39,1.1c0.24,0.1,0.68,0.23,1.3,0.37c0.63,0.14,0.64,0.17,0.81,0.46
			L101.23,25.29z"/>
		<path class="st2" d="M31.84,134.9c0-0.02,0.01-0.04,0.01-0.06C31.85,134.86,31.84,134.88,31.84,134.9
			C31.84,134.9,31.84,134.9,31.84,134.9z"/>
		<path class="st2" d="M127.39,42.47c0.02,0,0.03,0.01,0.05,0.01C127.43,42.48,127.39,42.47,127.39,42.47z"/>
		<path class="st2" d="M43.43,1.83c0.06-0.01,0.12-0.02,0.18-0.03c-0.01,0-0.02,0-0.03,0L43.43,1.83z"/>
		<path class="st2" d="M43.61,1.8C47.82,1.13,57,2.79,58.79,3.78c0.06,0.24,0.15,0.56,0.21,0.8c-0.19,0.13-0.44,0.3-0.63,0.42
			c-0.95-0.67-1.28-0.84-3.97-1.3c0,0.24-0.01,0.55-0.02,0.79C54.12,4.64,53.77,4.85,53.51,5C52.29,2.74,43.2,2.07,37.3,3.21
			c-8.63,2.23-16.97,5.6-24.77,10.04l-1.17,0.68c-3.63,2.29-5.87,3.88-7.3,5.71c2.31-0.71,4-3.19,6.84-2.43
			c2.06-3.29,8.63-5.74,8.69-5.76c1.5-0.55,3.05-0.53,4.6-0.48c-0.31,0.12-0.37,0.16-0.38,0.17c0,0,0,0-0.01,0.01
			c0.02,0.01,0.19-0.05,0.33-0.11c0.06-0.03,0.1-0.05,0.13-0.07c1.4,0.05,2.81,0.11,4.18-0.22c0,0,0.01,0,0.01,0
			c-5.64,3.43-12.28,4.3-18.19,7.05c-2.82,1.31-2.82,1.31-19.05,13.72c0.06,0.18-0.34,0.27-0.48,0.39
			c-1.38,1.17-2.35,2.14-3.57,3.56c0.25-0.43,0.43-0.74,1.45-1.88c-2.53,2.62-2.53,2.62-5.65,6.45c0.17-0.32,0.39-0.74,0.56-1.06
			c-0.49,0.33-1.17,0.77-1.54,1.24c-2.05,2.74-3.98,5.61-5.78,8.6c-1.85,3.08-3.51,6.21-5,9.4l-0.02,0.04
			c-1.42,3.16-3.18,7.1-8.06,26.12c-0.32,1.94-0.57,3.89-0.78,5.83l0,0.04c-0.03,0.24-0.06,0.57-0.08,0.81
			c-0.64,6.81-0.58,13.63,0.15,20.36c-0.12-1.42-0.1-1.72-0.07-2.39c0.64,0.95,1.33,7.9,1.33,7.97c-0.17-0.28-0.17-0.28-0.56-1.62
			c-0.02,0.11-0.06,0.26-0.08,0.38c-0.03-0.18-0.08-0.42-0.11-0.6c0.37,2.39,0.5,2.95,0.65,3.59c0.02-0.32,0.04-0.76,0.06-1.08
			c2.82,5.44,1.34,12.52,6.52,17.05c-0.12-0.22-0.12-0.22-0.12-0.22l0,0l0,0l0,0l0,0c0,0,0,0,0,0l0,0c0,0,0,0,0,0
			c1.29-0.59,1.94,0.96,2.01,1.14c0.16-0.04,0.37-0.09,0.53-0.13c0.11,0.06,0.23,0.19,0.34,0.23c0.32-0.65,0.32-0.65-0.39-3.06
			c0.09,0.13,0.2,0.31,0.29,0.44c0.15-0.1,0.36-0.22,0.51-0.32c0.13-0.9,0.16-1.16,0.12-1.55c0.09,0.76,0.06,1.55,0.38,2.27
			c0.17-4.92,0.17-4.92,0.26-5.54c0.35-1.87,0.35-1.87,1.02-2.46c0.85,0.67,1.54,1.51,2.31,2.25c0.16-0.01,0.38-0.02,0.54-0.03
			c-1.89-8.39-1.89-8.39-1.18-9.7c1.42,0.56,4.38,3.99,3.28,5.74c-0.15,0.03-0.36,0.07-0.51,0.09c-0.15-0.15-0.35-0.35-0.51-0.51
			c0.02,0.18,0.04,0.42,0.06,0.59c-0.17,0.08-0.39,0.18-0.56,0.25c-0.03,0.15-0.14,0.36-0.1,0.51c0.39,1.32,1.88,1.81,2.31,3.09
			c0.4,1.2-0.36,2.36-0.1,3.55c-0.1-0.13-0.23-0.3-0.33-0.42c-0.17,0.01-0.39,0.03-0.56,0.04c0.65,1.97,0.86,2.93,1,3.56
			c0-0.02,0-0.05,0-0.06l0.06,0.16l-0.06-0.08c0.06,0.38,0.11,0.9,0.12,1.29c-0.14,0.11-0.32,0.25-0.46,0.36
			c-0.01-0.17-0.02-0.39-0.03-0.55c-0.15-0.05-0.34-0.11-0.49-0.16c-0.59,0.85-1.27,2.06-1.14,3c0.19,1.37,1.61,1.97,2,3.22
			c0.45-0.67,1.46-0.74,1.72-1.6c0.55-1.78-1.11-3.73,0.44-5.43c0.19-0.21,1.15,0.06,2.16,0.36c1.2,0.35,1.41,0.2,1.88-0.13
			c0.03-0.22,0.08-0.5,0.12-0.72c0.07,0.19,0.15,0.44,0.22,0.63c0.33,0.09,0.76,0.28,1.05,0.46c0.25,5.54,8.06,3.37,11.13-0.11
			c2.04-2.3,2.33-3.98,2.64-5.76c0.05,0.16,0.12,0.38,0.18,0.55c0.43-0.61,1.58-2.23,0.12-5.01c-0.23,0.2-0.5,0.5-0.68,0.75
			c-0.15-0.26-0.44-0.57-0.69-0.74c0.22-0.24,0.43-0.65,0.52-0.96c0.33-0.17,0.89-0.46,1.38-1.91c-0.62,0.19-0.62,0.19-1.79,1.84
			c-2.31-6.57,6.67-3.99,8.03-3.39c2.27,1,0.89,4.19,3.13,5.22c0.21,0.73,0.21,0.73,0.64,1.53c0.03,0.05,0.03,0.06,0.04,0.07
			c0,0.01,0.01,0.02,0.01,0.02c0,0.01,0.01,0.02,0.01,0.02c0,0.01,0.01,0.02,0.01,0.02c0,0.01,0.01,0.02,0.01,0.02
			c0,0.01,0.01,0.02,0.01,0.02s0.01,0.02,0.01,0.02c0,0.01,0.01,0.02,0.01,0.02c0.16,0.3,0.34,0.72,0.46,1.04
			c-0.01,0.07-0.01,0.07-0.02,0.07c-0.14-0.12-0.32-0.28-0.45-0.4c-0.15,0.02-0.36,0.06-0.51,0.08c-0.1,0.45-0.39,1.82,2.32,2.83
			c3.21-5.24,4.35-3.83,4.73-2.53c0.21,0.69-0.35,2.21-0.89,3.68c1.53-0.55,1.7-0.45,2.19-0.16c0.58-1.3,0.58-1.3,0.81-1.74
			c0.15,0.19,0.34,0.44,0.49,0.63c-0.39,1.05-1.13,1.97-1.24,3.13c-1.94,0.46-3.57,3.13-5.81,1.42c0,0,0,0,0,0c0,0,0,0,0,0
			c0,0,0,0,0,0c0,0,0,0,0,0c0,0,0,0,0,0c0,0,0,0,0,0c0,0,0,0,0,0c0,0,0,0,0,0c-2.49,4.67-0.85,10.01-2.38,14.83
			c-0.3-0.07-0.7-0.17-1-0.23c-0.01,0.02-0.02,0.04-0.03,0.05l-0.01,0.02c-0.02,0.18-0.06,0.41-0.08,0.59
			c0.47-0.15,0.98-0.14,1.41-0.4c0.72-0.63,1.34-1.38,2.16-1.91c0.25,0.1,0.59,0.23,0.85,0.33l0,0c0,0,0,0,0,0
			c0.41-1.52,0.41-1.52,0.82-2.12c0.33,0.09,0.8,0.15,1.14,0.14c2.01-3.2-1.09-7.5,2.23-10.42c0.45-0.39,0.45-0.39,4.57,4.44
			c1.96-0.48,2.49-1.46,2.69-1.82c1.62,0.85,2.13,0.07,2.44-0.39c0.33,0.84,0.99,1.47,1.39,2.25c0.34-2.26-0.81-4.33-0.8-6.55
			c0.33,0.04,0.77,0.11,1.1,0.19c0.31-0.42,0.31-0.42,0.7-1.61c1.54,2.39,0.56,6.75,4.55,7.2c0.3-1.08-0.01-2.33-0.16-2.81
			c0.3,0.19,0.7,0.46,0.97,0.69c1.27-1.94,0.67-3.6-1.79-4.94C33,121.72,33,121.72,31.38,119.57c-0.23-0.01-0.53-0.03-0.75-0.04
			c-0.54,0.73-0.54,0.73-0.7,1.97c-0.67-1.54,0.1-2.41,0.35-2.64c-1.97-5.44-1.97-5.44-2.89-10.16c-0.44-2.26,1.86-2.77,1.89-2.76
			c3.15,0.39,0.95-5.42,0.91-5.49c-0.69,0.26-0.69,0.26-1.59,0.91c0.09-0.3,0.15-0.73,0.17-1.04c-0.17-0.01-0.39-0.02-0.55-0.03
			c-0.21,0.32-0.21,0.32-0.21,0.31c0.29-1.02,1.46-1.75,0.97-3.02c-0.38-0.14-0.91-0.26-1.31-0.28c0.35-0.83,0.36-0.84,5.65-4.82
			c-1.47-0.56-1.47-0.56-1.61-0.69c0.13-0.66,0.25-1.28,2.36-2.19c1.04-0.44,1.94-1.17,3.02-1.51c1.2-0.37,2.2,0.73,3.38,0.46
			c1.43-0.33,2.07-2.05,3.67-2.1c0.07-0.08,0.16-0.19,0.24-0.28c-0.13-0.79-0.15-0.89-1.13-1.48c0.09-0.13,0.2-0.29,0.29-0.42
			c-0.14-0.08-0.33-0.19-0.47-0.28c0.03-0.32,0.12-0.74,0.23-1.04c0.16,0.03,0.68,0.05,0.84,0.07l0.16-0.17
			c-0.07-0.4-0.13-0.93-0.16-1.32c2.3-1.32-0.24-3.08-0.27-3.09c-0.16-0.09-0.41-0.1-0.58-0.14c-0.07-0.19-0.17-0.44-0.25-0.63
			c1.39-1.52,1.39-1.52,1.47-2.09c-0.01,0.01-0.01,0.01-0.01,0.01c0,0,0,0,0,0c-1.18,0.1-1.18,0.1-2.72-0.66
			c0.09-0.17,0.21-0.39,0.31-0.56c0.8,0.04,0.8,0.04,1.67-0.74c0.18,0.04,0.41,0.11,0.59,0.15c-0.33-0.12-0.74-0.44-0.92-0.75
			c0.18-0.04,0.41-0.09,0.59-0.13c-0.69-0.33-1.52-0.26-2.18-0.68c0.33-0.2,0.77-0.49,1.09-0.71c1.37,0.31,1.91,1.69,3.01,2.35
			c-0.75-1.25-1.33-2.21-1.86-2.96c0.84,0.74,1.83,1.55,3.01,2.44c0.57,0.07,0.57,0.07,0.58,0.07c0,0,0,0,0,0
			c0.2,0.04,0.48,0.09,0.68,0.12c-0.47-5.83-3.71-7.38-5.08-7.78c0.15-0.15,0.35-0.36,0.5-0.51c2.38,0.43,4.8,0.62,7.18,1.08
			c-0.9-0.66-2.05-0.95-2.73-1.92c0.92-0.81,2.03-1.54,3.4-2.22c0.2,0.29,0.36,0.78,0.32,1.13c2.82-0.37,2.37-3.57,4.17-4.82
			c0.18,0.09,0.42,0.2,0.6,0.29c0.11,0.37,0.16,0.9,0.08,1.27c-0.17,0.06-0.39,0.14-0.56,0.19c0.06,0.6,0.17,1.71,1.72,1.91
			c0.14-0.12,0.32-0.28,0.46-0.41c-1.28-3.74-1.28-3.74-1.58-4.8c1.7,1.75,2.4-0.81,2.41-0.84c0.1-0.52-0.07-1.26-0.25-1.76
			c1,0.62,2.09,0.09,3.13,0.24c-0.45-0.51-1.08-0.83-1.53-1.34c0.13-0.15,0.29-0.35,0.42-0.5c3.1,0.75,2.41,4.36,4.45,5.91
			c-6.89-2.28-6.89-2.28-6.05,0.74c0.42,1.51,1.31,1.87,5.61,3.6c0.04,0.22,0.1,0.5,0.15,0.72c0.68,0.36,0.68,0.36,1.89,0.56
			c-0.12,0.19-0.27,0.44-0.39,0.63c-0.18,0.02-0.42,0.05-0.59,0.08c0.11,0.18,0.25,0.43,0.36,0.61c0.37,0.06,0.9-0.04,1.22-0.22
			c-0.07,0.2-0.15,0.46-0.22,0.66c0.4-0.15,0.87-0.53,1.11-0.88c-0.01,0.18-0.03,0.42-0.04,0.6c0.31-0.24,0.7-0.59,0.96-0.88
			c-0.17,0.41-0.43,0.95-0.65,1.33c0.14,0.15,0.34,0.35,0.48,0.5c0.95-0.49,1.12-0.57,1.21-1.96c0.16,0.08,0.37,0.18,0.53,0.26
			c0.08-0.16,0.2-0.38,0.28-0.54c0.38,0.05,0.91-0.11,1.25-0.29c0.05,0.4,0.1,0.94,0.13,1.34c0.29-0.19,0.6-0.56,0.75-0.87
			c0.37-0.03,0.85-0.05,1.22-0.05c-0.07-0.17-0.16-0.39-0.23-0.56c0.17-0.09,0.4-0.2,0.57-0.29c0.12,0.13,0.29,0.31,0.42,0.45
			c-0.09,0.18-0.21,0.41-0.3,0.59c0.8-0.78,1.96-1,2.77-1.76c-0.37-0.14-0.92-0.2-1.31-0.16c-0.1-0.17-0.23-0.4-0.34-0.58
			c0.43-0.19,0.43-0.19,1.79-1.31C78.01,61,78,60.98,78,60.97l0.06,0c1.26-0.96,6.68-4.39,7.08-4.47c1.09-0.21,1.37-0.25,2.45-0.34
			c0.94-0.04,0.94-0.04,3.03-4.15c-0.13-0.13-0.31-0.3-0.44-0.42c0.12-0.12,0.29-0.29,0.42-0.42c-0.37-1.4-1.05-4-4.93-1.25
			c-0.67-5.05-0.63-6.01,1.37-6.74c0.06,0.17,0.13,0.39,0.18,0.56c0.18-0.02,0.43-0.05,0.61-0.07c-0.04-0.37-0.18-0.85-0.32-1.19
			c0.15-0.12,0.34-0.28,0.49-0.39c0.18,0.03,0.42,0.08,0.6,0.11c-0.84-1.05-0.94-0.94-2.57,0.9c-0.49-2.09-3.87-1.54-5.33,0.87
			c-0.86,1.43-2.2,2.46-3.2,3.77c1.05,2.04,2.37,4.58-4.05,7.2c0.28,1.32,0.28,1.32-0.25,2.07c-0.61-0.09-1.63-0.25-2.47-1.62
			c3.12-2.59,3.12-2.59,3.74-7.53c-2.03-1.01-4.39,0.86-6.36-0.71c0.04-0.05,0.1-0.11,0.14-0.16c-0.41-0.19-0.9-0.57-1.2-0.9
			c0.11-0.14,0.27-0.34,0.38-0.48c4.24,0.58,4.24,0.58,4.89,0.14c1.58-1.07,0.12-2.8,0.88-4.04c0.91,0.06,1.35,0.91,2.09,1.25
			c0.35-0.24,1.28-0.89,2.4-4.8c0.35-0.14,0.9-0.2,1.27-0.11l7.24,2.09c-0.13,0.13-0.32,0.31-0.45,0.44
			c4.07,0.18,4.07,2.14,4.08,2.88c-0.06-0.36-0.34-0.81-0.63-1.03c-0.3,0.21-0.66,0.58-0.86,0.89c0.08,0.17,0.18,0.39,0.26,0.56
			c0.18,0.01,0.41,0.03,0.59,0.04c-0.44,0.12-1.01,0.33-1.42,0.52c-0.31,1.7-0.31,1.7-0.91,2.56c1.34,0.02,1.56-0.06,2.39-0.41
			c-0.02,0-0.04,0-0.05,0l0.07,0c0.2-0.14,0.47-0.33,0.64-0.51c1.69-2.21,1.71-3.37,1.72-3.94c0.13-0.12,0.31-0.28,0.45-0.4
			c0.7,1.17,0.96,1.61,6.56,0.87c4.24-0.56,6.49-0.6,8.85,1.46c0.18-0.02,0.41-0.04,0.59-0.05c0.17-0.37,0.3-0.91,0.34-1.31
			c3.56,2.2,3.56,2.2,4.45,2.54c-2.31-3.07-4.1-8.44,0.83-7.37c2.28,0.5,3.83,2.52,4.96,3.99c1.86,2.44,5.48,5.75,8.74,0.6
			c0.56-0.3,0.56-0.3,1.77-1.25c-4.46-2.54-5.84-8.57-11.31-9.96c-4.32-1.1-8.69,2.17-13-0.13c-0.47-0.28-0.48-0.29-0.49-0.29
			c-12.52-7.69-15.88-9.76-14.44-13.29c1.43-0.05,2.76,0.55,4.16,0.67c-0.25-1.26-1.45-1.42-5.42-1.96
			c-0.45,0.53-0.7,0.82-0.32,2.58c0.01,0,0.02,0,0.03,0l-0.03,0.01c-1.09-0.28-2.08-0.81-3.13-1.19c1.89,3.56,7.42,3.99,7.68,8.95
			c-1.14,0.45-1.4,0.35-3.91-0.56c-0.14-0.33-0.19-0.84-0.11-1.2L79.8,14.47c0.12-0.16,0.29-0.38,0.41-0.55
			c-0.52-0.78-0.96-1.46-3.32-2.05c0.14,0.37,0.39,0.85,0.6,1.19c-0.22-0.02-0.52-0.05-0.74-0.08c-0.14,0.13-0.33,0.31-0.47,0.44
			c-0.19-0.07-0.45-0.16-0.65-0.24c0,0.2,0,0.46,0,0.66c-0.34-0.2-0.79-0.47-1.14-0.66c0.66,1.32,2.06,1.93,2.93,3.04
			c-0.13,0.14-0.31,0.34-0.44,0.48c-0.18-0.38-0.57-0.82-0.9-1.08c-0.31,0.2-0.83,0.3-1.2,0.26c0.18,0.17,0.42,0.4,0.6,0.57
			c-1.24,1.07-4.72-0.29-4.83-1.22c-0.2-1.74-0.2-1.74-0.85-2.02c-0.05-0.41-0.16-0.97-0.32-1.35c-6.59-1.98-13.84-0.67-13.91-0.66
			c-3.73,0.81-3.45-0.98-2.56-2.63c2.81-4.01,12.1-3.16,17.39-2.3c24.4,3.97,25.35,4.13,30.13,10.04c0.19,1.18-1.36,1.01-1.94,1.63
			c-0.84,0.89,0.28,1.41,2.3,2.35c2.28,1.05,18.72,9.48,20.62,11.05c1.69,1.4,2.94,3.25,4.72,4.57c0.65,0.48,0.65,0.48,4.44,2.22
			c3.54,1.7,3.54,1.7,5.4,0.86c0.03,0.02,5.86,4.29,12.41,11.07c-0.1-0.58-0.27-1.34-0.46-1.89c-7.7-13.19-19.24-25.04-33.8-33.78
			C92.16,1.13,67.05-2.68,43.61,1.8z M42.08,69.06c-0.4-0.2-0.85-0.31-1.38-0.37c-0.26,0.32-0.61,0.74-0.89,1.04
			c-0.13-0.01-0.13-0.01-2.69-1.3c-0.36,0.01-0.35,0.01-0.35,0.01c0,0,0,0,0,0l0,0c0,0,0,0,0,0l0,0l0,0c0,0,0,0,0,0c0,0,0,0,0,0
			c0.72-0.16,0.72-0.16,2.94,0.83c0.29-0.2,0.57-0.64,0.66-0.98c-2.1-3.4-2.1-3.4-0.53-4.57C39.61,64.31,39.02,65.79,42.08,69.06z
			 M37.63,23.66c0.37-0.25,0.87-0.42,1.13-0.11c0.55,0.64,0.15,1.56,0.66,2.2c-0.33-0.09-0.54-0.09-0.85,0
			c-1.67,0.83-1.94,3.09-3.8,3.73c-2.2,0.75-2.47,0.15-2.73-0.43c-0.31-0.68-0.42-0.71-1.05-0.72c2.13-1.32,2.13-1.32,2.23-1.47
			c-0.09-0.19-0.38-0.34-0.58-0.43c0.28-0.16,0.7-0.41,0.8-0.71c-0.36-0.29-0.77-0.61-3.35-0.75c-0.74-0.04-1.98-0.11-3.51-0.82
			c-1.57-0.73-2.47-1.62-4.28-3.38c0.01,0,0.02-0.01,0.04-0.01c1.59-0.68,2.77-2.14,4.58-2.4l0,0.03c0.01-0.01,0.03-0.01,0.04-0.02
			c0.15,0.04,0.15,0.04,0.55-0.03c0.98-0.18,3.02-0.54,3.83-0.11c1.36,0.73,0.73,2.15,0.17,2.57c-0.21,0.16-0.49,0.28-0.83,0.37
			C32.94,22.15,38.52,20.29,37.63,23.66z M58.33,23.04l0.02,0.01l-0.04,0.03l-0.02,0.01l-0.14,0.14c0.04-0.04,0.1-0.09,0.14-0.13
			c-0.11,0.15-0.42,0.37-0.42,0.37c0.01-0.04,0.01-0.04,0.09-0.11c-1.5,1.05-3.96,1.96-5.78,1.66c0.05-0.05,0.12-0.12,0.18-0.17
			c0.52-0.44,1.15-0.67,1.93-0.68c-0.33-0.53-1.07-0.28-1.43-0.75c0.98,0.09,0.94-0.69,0.91-1.16C56,22.24,58.54,22.22,58.33,23.04z
			 M64.72,16.18c1.75,0.14,3,1.4,4.56,1.98c-1.36,0.68-1.52,0.89-2.24,2.74c-0.65,1.68-1.52,2.03-1.89,2.18l0.08,0.04l0.22,0.15
			l-0.33-0.18c-1.39,0.48-2.78,0.13-5.09-0.45c1.26-1.09,1.26-1.09,1.32-1.36c-0.33-0.31-1.59-0.64-4.22,0.06
			c-4.15,1.1-11.42-1.66-10.76-2.93c0.01-0.02,1.03-1.7,4.24-1.73c2.72-0.03,5.36,0.82,8.08,0.73
			C60.77,17.33,62.59,16.01,64.72,16.18z"/>
		<polygon class="st2" points="69.5,11.69 69.49,11.69 69.49,11.69 		"/>
		<polygon class="st2" points="69.48,11.69 69.49,11.69 69.48,11.69 		"/>
		<path class="st2" d="M34.66,103.21c0.42,0.13,1.26-0.53,1.27-0.54c0.43-0.37,0.43-0.64,0.4-0.9c-0.08-0.27-0.18-0.46-0.55-0.81
			c0.06,0.08-0.11,0.21-0.51,0.51C34.81,101.8,33.43,102.83,34.66,103.21z"/>
		<polygon class="st2" points="-30.11,139.83 -30.1,139.84 -30.1,139.84 -30.11,139.83 		"/>
		<path class="st2" d="M-34.43,124.45c0.02,0.05,0.04,0.09,0.05,0.14c0,0,0,0,0,0c0,0,0,0,0,0
			C-34.4,124.54-34.42,124.5-34.43,124.45z"/>
		<path class="st2" d="M-29.99,138.14c0.01,0.11,0.05,0.26,0.12,0.48c0,0.01,0.01,0.02,0.01,0.02
			C-29.91,138.47-29.95,138.3-29.99,138.14C-29.99,138.14-29.99,138.14-29.99,138.14z"/>
		<polygon class="st2" points="-30.11,139.83 -30.11,139.82 -30.11,139.83 -30.11,139.83 		"/>
		<path class="st2" d="M-29.42,138.49c0.32,0.33,0.71,0.75,0.9,0.77c0.13,0.01,0.12-0.13,0.11-0.25c0,0.01,0,0.04,0,0.05
			c0,0.01-0.01,0.02-0.01,0.02c-0.1-0.01-0.3-0.28-0.87-1.14c-0.62-0.94-0.85-1.26-0.97-1.22c-0.04,0.08-0.03,0.18,0.04,0.5
			c-0.02-0.06-0.04-0.13-0.06-0.19c0.01,0.07,0.03,0.13,0.05,0.2c-0.01-0.02-0.02-0.05-0.03-0.08c0.15,0.49,0.15,0.49,0.27,0.99
			C-29.98,137.92-29.85,138.03-29.42,138.49z M-30.15,137.48l-0.06-0.2c0,0,0,0,0,0l0.07,0.27L-30.15,137.48z M-30.15,137.46
			c0,0,0,0.01,0,0.01l0.03,0.09L-30.15,137.46z"/>
		<path class="st2" d="M-30.09,139.87c0,0,0,0.01,0,0.01l-0.02-0.05c0.01,0.03,0.01,0.05,0.03,0.08c0,0.01,0,0.03,0,0.05
			c-0.02-0.02-0.07-0.06-0.15-0.21c0.72,1.71,1.49,3.4,2.3,5.07l-0.06-0.12C-28.96,142.53-29.97,140.3-30.09,139.87z"/>
		<path class="st2" d="M-30.11,139.83L-30.11,139.83c0,0.01,0.01,0.02,0.01,0.03C-30.1,139.85-30.1,139.84-30.11,139.83z"/>
		<path class="st2" d="M-37.46,112.39c-0.04-0.33-0.07-0.66-0.1-0.99c0,0.02,0,0.03,0,0.04L-37.46,112.39z"/>
		<path class="st2" d="M68.78,199.28c0.03,0,0.07,0.01,0.1,0.01c0.03,0,0.08,0.01,0.12,0.01C68.93,199.3,68.85,199.29,68.78,199.28
			C68.78,199.29,68.78,199.29,68.78,199.28z"/>
	</g>
</g>
</svg>
