<svg xmlns="http://www.w3.org/2000/svg" viewBox="0 0 377 499.01"><defs><style>.cls-1{fill:#ffd90a;}.cls-2{fill:#fff574;}</style></defs><g id="Layer_2" data-name="Layer 2"><g id="Layer_1-2" data-name="Layer 1"><g id="cOSuRZ.tif"><g id="vZV6td.tif"><path class="cls-1" d="M27,414c0-42.4-.1-84.8.05-127.19,0-2.21,1.51-4.87,3.08-6.54q24.36-25.83,49-51.32a13.08,13.08,0,0,0,4-10C83,167.18,83.1,115.39,83,63.61a12.39,12.39,0,0,1,3.8-9.56q24.48-25,48.6-50.3c3-3.17,6-4.63,10.67-3.2.1,1.84.3,3.85.3,5.86,0,29.19.13,58.39-.09,87.58,0,5.11,1,6.91,6.31,6.79,16.15-.39,32.31-.16,48.47-.12,2,0,29,.36,30.95.5,0,2.09-2,4.07-2,6.15H198.27v20.87H223c0,2.43-2,4.87-2,7.3-19.79,0-53.58-.06-73.37-.07-.25,0-.51.38-1.25,1,0,12.8.22,26-.11,39.14-.13,5.13,1.06,6.84,6.3,6.76,18.14-.27,40.29,0,58.43.15,0,2.09-1,4.18-1,6.26H198.48a14.16,14.16,0,0,0-.52,2.25q0,6.19,0,12.39c0,6.72,0,6.73,6.63,6.54.81,0,2.63-.21,3.44-.31,0,2.43-1,4.86-1,7.3-18.12-.13-36.25,0-54.37-.5-5.12-.13-6.37,1.44-6.36,6.68.17,61.61.1,123.22.13,184.84,0,2.05.39,4.09.59,6.14h-8V403.54H90.65c-.23,3.68-.45,7.07-.66,10.47H83V403.38H34V414ZM117.86,31.56l20.93,21.87V9.36ZM132.59,58,112.32,36.7,92.55,58Zm-50,279.1V295.28l-20.1,20.83Zm.09-56.92V238.45L62.81,259Zm56.09-.26V238.65l-19.88,20.69Zm-19.84,91.8,19.83,20.78V351.09Zm-56.39.52,20.08,19.86V351.21Zm76.26-205.74V125.23l-20.06,20.48Zm0,169.77V294.87l-19.87,20.67ZM118.78,201.63l19.86,20.57V181.32ZM138.84,68.76,118.79,89l20,21ZM95.08,346.91l18.74,19.72,19-19.72Zm38.47-56.25H95.25l19,19.86ZM76.69,347.07H38.39l19.12,19.76ZM38.26,290.44l19,19.89,19.47-19.89ZM95.17,234l18.51,19.29L132.87,234ZM39.66,340.17H76.53L58,320.63Zm51.05-100v38.5l18.61-19.51ZM76.49,283.72,57.76,264.34c-6,6.23-12.29,12.8-18.6,19.38Zm18.23-56.53H132l-18.14-19.37Zm20.06,37.25L96.21,283.59H133ZM95.26,64.62l18.15,19.07,18-19.07Zm-.54,112.89c6.73,7.05,13.11,13.71,18.74,19.6l19.16-19.6Zm37.61-6.6-18.2-19.22c-6,6.25-12.35,12.87-18.45,19.22Zm-.08-56.42L114.18,95.16,95.52,114.49Zm-36.92,6.63,18.54,19.3,19.07-19.3ZM34.26,390.77l18.22-18.29-18.22-19.6Zm60.7,6h37.35l-18-19.69Zm-42.5-81.12L34.33,296.32v38.33ZM39.39,396.75H76.17L57.71,377.38ZM90.7,108l18.46-18.25-18.46-20Zm18.66,94.74L90.75,182.92v39ZM90.65,335.09l18.66-18.89L90.65,297Zm23.6-14.34L95.42,340.08h36.77ZM90.62,165l17.86-18.22L90.62,127.33Zm0,226.75,18.34-19L90.63,353.42Zm81.69-284.58c-4.5,0-8.32-.18-12.11.12-1,.08-2.77,1.57-2.81,2.48-.25,6-.13,12-.13,18.09h15Zm.19,81.42c-4.33,0-8,.13-11.59,0-2.89-.14-3.81,1.21-3.74,4,.11,4.51-.23,9,.19,13.52.13,1.37,2.28,3.76,3.22,3.62,3.95-.59,8.58,2.56,11.85-2a1,1,0,0,0,.07-.51Zm5.27,21.31c4.54,0,8.23.27,11.83-.15,1.22-.14,3.14-1.95,3.22-3.12a131.14,131.14,0,0,0,0-15.1c0-1-1.29-2.65-2.08-2.72a75.78,75.78,0,0,0-11,0,3.16,3.16,0,0,0-1.95,2.31C177.71,197.11,177.78,203.15,177.78,209.9ZM192.64,128V107.57H178.18V128Zm-45.95-20.53v20.5h5.13v-20.5Zm-.11,81.47c0,6.33-.12,12.35.13,18.36,0,.89,1.77,2.19,2.86,2.38.73.13,2.43-1.38,2.46-2.2.21-6.15.12-12.32.12-18.8Z"/></g></g><g id="Layer_2-2" data-name="Layer 2"><g id="Rocket"><rect class="cls-1" y="416.8" width="376.98" height="71.69"/><ellipse class="cls-2" cx="188.5" cy="416.8" rx="188.5" ry="10.53"/><ellipse class="cls-1" cx="188.5" cy="488.48" rx="188.5" ry="10.53"/><rect class="cls-1" x="220.59" y="373.57" width="113.02" height="40.55"/><ellipse class="cls-2" cx="277.1" cy="373.57" rx="56.52" ry="5.96"/><ellipse class="cls-1" cx="277.1" cy="414.12" rx="56.52" ry="5.96"/></g></g></g></g></svg>