<?xml version="1.0" encoding="utf-8"?>
<!-- Generator: Adobe Illustrator 26.0.3, SVG Export Plug-In . SVG Version: 6.00 Build 0)  -->
<svg version="1.1" xmlns="http://www.w3.org/2000/svg" xmlns:xlink="http://www.w3.org/1999/xlink" x="0px" y="0px"
	 viewBox="0 0 540 553" style="enable-background:new 0 0 540 553;" xml:space="preserve">
<style type="text/css">
	.st0{fill:#263238;}
	.st1{opacity:0.7;fill:#FFFFFF;}
	.st2{fill:#455A64;}
	.st3{opacity:0.05;}
	.st4{fill:#FFFFFF;}
	.st5{opacity:0.2;}
	.st6{opacity:0.1;}
	.st7{opacity:0.5;fill:#FFFFFF;}
	.st8{fill:#27DEBF;}
	.st9{fill:#37474F;}
	.st10{opacity:0.3;}
	.st11{opacity:0.15;}
	.st12{opacity:0.25;}
	.st13{opacity:0.5;fill:#27DEBF;}
	.st14{fill:#F5F5F5;}
	.st15{fill:#E0E0E0;}
	.st16{fill:#EBEBEB;}
	.st17{fill:#FAFAFA;}
	.st18{opacity:0.3;fill:#FAFAFA;}
	.st19{fill:#E6E6E6;}
	.st20{opacity:0.35;}
	.st21{opacity:0.5;fill:#263238;}
	.st22{opacity:0.85;fill:#27DEBF;}
	.st23{opacity:0.85;fill:#FFFFFF;}
	.st24{opacity:0.8;fill:#455A64;}
	.st25{opacity:0.3;fill:#455A64;}
	.st26{opacity:0.2;fill:#FFFFFF;}
	.st27{opacity:0.3;fill:#FFFFFF;}
	.st28{fill:#F0F0F0;}
</style>
<g id="Space">
</g>
<g id="Planet">
	<g id="Planet_1_">
		<g id="Planet_2_">
			
				<ellipse id="XMLID_6589_" transform="matrix(0.7071 -0.7071 0.7071 0.7071 -78.3383 189.8478)" class="st0" cx="190" cy="189.49" rx="188" ry="188"/>
			
				<ellipse id="XMLID_6503_" transform="matrix(0.7071 -0.7071 0.7071 0.7071 -78.3383 189.8478)" class="st1" cx="190" cy="189.49" rx="188" ry="188"/>
			<g id="XMLID_4228_">
				<path id="XMLID_6499_" class="st2" d="M169.38,76.48c-9.46-17.73-25.39-44.81-37.86-65.67c-11.47,3.75-22.45,8.56-32.83,14.34
					c23.03,34.23,45.34,65.38,51.29,75.92C157.3,114.01,186.64,108.83,169.38,76.48z"/>
				<path id="XMLID_6487_" class="st2" d="M327.72,317.4c-31.84-30.96-91.1-88.86-116.06-115.02
					c-34.94-36.61-67.99-38.01-77.99-51.54c-7.24-9.81-43.85-70.86-65.71-104.29c-5.39,4.6-10.51,9.5-15.35,14.68
					c16.53,30.52,43.16,79.49,49.2,89.61c8.91,14.93-0.05,31.42-11.1,15.41c-6.88-9.97-37.55-48.96-59.73-76.99
					c-7.21,11.41-13.24,23.62-17.88,36.51c31.87,46.76,73.84,93.46,88.71,98.76c16.68,5.94,43.85-22.53,61.97-5.71
					c13.58,12.6,89.61,90.91,126.9,129.4C304.31,339.55,316.76,329.19,327.72,317.4z"/>
				<path id="XMLID_6015_" class="st2" d="M190,377.48c24.2,0,47.3-4.62,68.55-12.95c-30.93-27.86-80.05-71.49-94.77-81.01
					c-22-14.23-29.76,28.47-49.17,24.96c-17.07-3.08-65.13-56.05-112.55-120.87C2.04,188.25,2,188.86,2,189.49
					C2,293.31,86.17,377.48,190,377.48z"/>
				<path id="XMLID_6013_" class="st2" d="M266.76,17.88c-0.9,10.15,3.47,22.2,17.96,41.43c22.7,30.11,42.25,50.72,49.29,63.06
					c7.05,12.34-20.13,9.8-10.42,29.83c6.17,12.73,33.6,41.88,52.81,61.46c1.02-7.92,1.6-15.98,1.6-24.18
					C377.99,113.01,332.31,47.25,266.76,17.88z"/>
				<path id="XMLID_6012_" class="st2" d="M237.53,122.37c-7.76-20.01,15.53-34.24,6.47-57.54c-5.51-14.17-21.07-42.24-32.42-62.07
					C204.5,1.95,197.3,1.49,190,1.49c-7.89,0-15.64,0.54-23.27,1.49c16.61,31.3,35.36,67.58,38.46,79.98
					c3.88,15.53-23.9,32.72-15.19,43.54c7.29,9.04,119.86,128.2,156.58,167.04c8.04-12.07,14.73-25.12,19.83-38.94
					C333.95,224.15,243.89,138.75,237.53,122.37z"/>
			</g>
			<g id="XMLID_6514_" class="st3">
				<path id="XMLID_6519_" class="st4" d="M169.38,76.48c-9.46-17.73-25.39-44.81-37.86-65.67c-11.47,3.75-22.45,8.56-32.83,14.34
					c23.03,34.23,45.34,65.38,51.29,75.92C157.3,114.01,186.64,108.83,169.38,76.48z"/>
				<path id="XMLID_6518_" class="st4" d="M327.72,317.4c-31.84-30.96-91.1-88.86-116.06-115.02
					c-34.94-36.61-67.99-38.01-77.99-51.54c-7.24-9.81-43.85-70.86-65.71-104.29c-5.39,4.6-10.51,9.5-15.35,14.68
					c16.53,30.52,43.16,79.49,49.2,89.61c8.91,14.93-0.05,31.42-11.1,15.41c-6.88-9.97-37.55-48.96-59.73-76.99
					c-7.21,11.41-13.24,23.62-17.88,36.51c31.87,46.76,73.84,93.46,88.71,98.76c16.68,5.94,43.85-22.53,61.97-5.71
					c13.58,12.6,89.61,90.91,126.9,129.4C304.31,339.55,316.76,329.19,327.72,317.4z"/>
				<path id="XMLID_6517_" class="st4" d="M190,377.48c24.2,0,47.3-4.62,68.55-12.95c-30.93-27.86-80.05-71.49-94.77-81.01
					c-22-14.23-29.76,28.47-49.17,24.96c-17.07-3.08-65.13-56.05-112.55-120.87C2.04,188.25,2,188.86,2,189.49
					C2,293.31,86.17,377.48,190,377.48z"/>
				<path id="XMLID_6516_" class="st4" d="M266.76,17.88c-0.9,10.15,3.47,22.2,17.96,41.43c22.7,30.11,42.25,50.72,49.29,63.06
					c7.05,12.34-20.13,9.8-10.42,29.83c6.17,12.73,33.6,41.88,52.81,61.46c1.02-7.92,1.6-15.98,1.6-24.18
					C377.99,113.01,332.31,47.25,266.76,17.88z"/>
				<path id="XMLID_6515_" class="st4" d="M237.53,122.37c-7.76-20.01,15.53-34.24,6.47-57.54c-5.51-14.17-21.07-42.24-32.42-62.07
					C204.5,1.95,197.3,1.49,190,1.49c-7.89,0-15.64,0.54-23.27,1.49c16.61,31.3,35.36,67.58,38.46,79.98
					c3.88,15.53-23.9,32.72-15.19,43.54c7.29,9.04,119.86,128.2,156.58,167.04c8.04-12.07,14.73-25.12,19.83-38.94
					C333.95,224.15,243.89,138.75,237.53,122.37z"/>
			</g>
			<g id="XMLID_6533_" class="st5">
				<path id="XMLID_6592_" class="st4" d="M210.61,302.49c9.46,17.73,25.39,44.81,37.86,65.67c11.47-3.75,22.45-8.56,32.83-14.34
					c-23.03-34.23-45.34-65.38-51.29-75.92C222.69,264.96,193.36,270.14,210.61,302.49z"/>
				<path id="XMLID_6591_" class="st4" d="M52.28,61.57c31.84,30.96,91.11,88.86,116.06,115.02c34.94,36.61,67.99,38.01,77.99,51.54
					c7.24,9.81,43.85,70.86,65.71,104.29c5.39-4.6,10.51-9.5,15.35-14.68c-16.53-30.52-43.16-79.49-49.2-89.61
					c-8.91-14.93,0.05-31.42,11.1-15.41c6.88,9.97,37.55,48.96,59.73,76.99c7.21-11.41,13.24-23.62,17.88-36.51
					c-31.87-46.76-73.84-93.46-88.71-98.76c-16.68-5.94-43.85,22.53-61.97,5.71c-13.57-12.6-89.61-90.91-126.9-129.4
					C75.68,39.42,63.23,49.78,52.28,61.57z"/>
				<path id="XMLID_6590_" class="st4" d="M190,1.49c-24.2,0-47.3,4.62-68.55,12.95c30.93,27.86,80.05,71.49,94.77,81.01
					c22,14.23,29.76-28.47,49.17-24.96c17.07,3.08,65.13,56.05,112.55,120.87c0.01-0.62,0.05-1.24,0.05-1.86
					C377.99,85.66,293.83,1.49,190,1.49z"/>
				<path id="XMLID_6587_" class="st4" d="M113.24,361.09c0.9-10.15-3.47-22.2-17.96-41.43c-22.7-30.11-42.25-50.72-49.29-63.06
					c-7.05-12.34,20.13-9.8,10.42-29.83c-6.17-12.73-33.6-41.88-52.81-61.46C2.58,173.23,2,181.29,2,189.49
					C2,265.96,47.69,331.72,113.24,361.09z"/>
				<path id="XMLID_6536_" class="st4" d="M142.46,256.6c7.76,20.01-15.53,34.24-6.47,57.54c5.51,14.17,21.07,42.24,32.42,62.07
					c7.09,0.81,14.28,1.27,21.59,1.27c7.89,0,15.64-0.54,23.27-1.49c-16.61-31.3-35.36-67.59-38.46-79.98
					c-3.88-15.53,23.9-32.72,15.19-43.54c-7.29-9.04-119.86-128.2-156.58-167.04c-8.04,12.07-14.73,25.12-19.83,38.94
					C46.05,154.83,136.1,240.22,142.46,256.6z"/>
			</g>
			<path id="XMLID_6603_" class="st6" d="M375.88,217.72C362,287.19,236.66,350.99,136.19,307.96
				C29.37,262.22,9.26,117.77,61.55,52.3l-0.01-0.07C24.91,86.54,2,135.33,2,189.49c0,103.83,84.17,188,188,188
				C284.23,377.48,362.26,308.16,375.88,217.72z"/>
			
				<ellipse id="XMLID_6593_" transform="matrix(0.2298 -0.9732 0.9732 0.2298 73.3806 295.3286)" class="st7" cx="223.27" cy="101.3" rx="79.22" ry="79.22"/>
			<circle id="XMLID_6598_" class="st7" cx="322.79" cy="186.39" r="36.28"/>
			<path id="XMLID_6602_" class="st6" d="M2,189.49c0,103.83,84.17,188,188,188c67.56,0,126.79-35.64,159.93-89.14
				c-4.23,6.62-57.4,90.27-188.85,66.21C24.24,329.51,2.01,189.54,4.3,160.01C2.79,169.61,2,179.46,2,189.49z"/>
		</g>
	</g>
</g>
<g id="Starman">
	<g id="XMLID_00000091718404780041368230000017908869218893777568_">
		<g id="Interiors_00000182502722149265675980000013761952352502039694_">
			<path id="XMLID_00000075848724262661573270000000642020925469613444_" class="st8" d="M461.2,372.32
				c-10.11-1.34-14.96-5.31-31.93,4.22c-4.02,2.26-12.13,6.97-22.18,12.85c0,0-11.69,12.16-26.51,19.92
				c-28.06,14.67-58.24,30.11-58.24,30.11s0.39,0.41,1.76,0.96c8.35,3.37,39.33,14.9,52.94,10.04
				C392.87,444.77,461.2,372.32,461.2,372.32z"/>
			<path id="XMLID_00000120522975796144464240000007895023767781650048_" class="st7" d="M334.06,434.23
				c0,0,44.51-21.27,49.19-24.19s8.73-6.06,10.29-7.57c1.56-1.5,1.17,3.52-7.01,8.1C375.51,416.74,334.06,434.23,334.06,434.23z"/>
			<path id="XMLID_00000106843240028948795010000010031660549382607516_" class="st9" d="M395.47,392.6c0,1.44,0.13,3.43,0.26,6.04
				c0.18,3.5-0.32,5.31-1.96,8.01c-0.75,1.23-2.37,3.07-5.36,4.91c-16.48,10.14-66.07,27.86-66.07,27.86l1.75,0.96l57.03-11.79
				l19.95-13.1l0.46-21.59l-3.1-1.65L395.47,392.6z"/>
			<g id="XMLID_00000148660632124112355960000013227619038239405238_">
				<g id="XMLID_00000006668540683830922660000010961334890946336671_">
					<path id="XMLID_00000176015184743543107790000017097174258357727375_" class="st8" d="M401.54,393.9l-0.03,1.1
						c-0.41,1.1-1.1,2.6-2.06,3.18c-0.54,0.33-1.14,0.47-1.7,0.47c-1.1,0-2.05-0.56-2.11-1.46c-0.02-0.24-0.03-0.48-0.04-0.72
						c-0.1-1.71-0.14-2.84-0.14-3.87l2.98-0.35L401.54,393.9z"/>
					<path id="XMLID_00000030476302815923741320000005103596899199498399_" class="st10" d="M401.54,393.9l-0.03,1.1
						c-0.41,1.1-1.1,2.6-2.06,3.18c-0.54,0.33-1.14,0.47-1.7,0.47c-1.1,0-2.05-0.56-2.11-1.46c-0.02-0.24-0.03-0.48-0.04-0.72
						c-0.1-1.71-0.14-2.84-0.14-3.87l2.98-0.35L401.54,393.9z"/>
				</g>
			</g>
			<path id="XMLID_00000092450780044730203860000013029389434594925743_" class="st8" d="M471.31,379.41
				c-3.31-7.83-9.38-7.82-19.38-6.39c-1.16,0.16-26.71,5.51-41.01,10.98c-10.8,4.14-13.98,7.27-14.84,7.76
				c-2,1.15,1.31,3.06,3.51,2.02c0,1.69,0.04,3.15,0,4.44c-0.27,7.75-1.54,8.92-5.26,13.1c-1.53,1.72-6.11,4.03-8.61,5.44
				c-4.67,2.62-15.65,7.24-28.05,12.03c-5.31,2.05-30.85,11.63-33.58,11.6l67.95,42.56L413.49,499l100.68-94.7L471.31,379.41z"/>
			<path id="XMLID_00000152221737703997382740000015424490229468859583_" class="st11" d="M490.76,414.01l-12.31,7.15l-25.76-15.71
				c0,0,10.39,5.39,18.36,7.01s12.81,1.56,16.47-0.32L490.76,414.01z"/>
			<g id="XMLID_00000124134025687956614630000018323582565950252458_">
				<polygon id="XMLID_00000098193462905509913930000018014420749995344526_" class="st8" points="399.58,393.78 407.54,388.43 
					473.09,424.21 462.64,430.24 462.65,470.66 399.58,434.24 				"/>
				<polygon id="XMLID_00000019662513219113940230000012315744980962396339_" class="st12" points="399.58,393.78 407.54,388.43 
					473.09,424.21 462.64,430.24 462.65,470.66 399.58,434.24 				"/>
				<polygon id="XMLID_00000048464071015016334700000001863764644222707882_" class="st13" points="472.68,423.99 407.54,388.43 
					399.58,393.78 399.58,393.81 462.66,430.23 472.52,424.54 				"/>
			</g>
			<g id="XMLID_00000183223435179831246720000005485573646075153031_">
				<polygon id="XMLID_00000127727399998884478560000002646239518748252835_" class="st9" points="402.93,395.77 402.93,424.11 
					459.07,456.48 459.07,428.14 				"/>
				<polygon id="XMLID_00000166663538482175856890000012069001838623511173_" class="st2" points="402.93,395.77 409.94,391.72 
					466.08,424.09 459.07,428.14 				"/>
			</g>
			<path id="XMLID_00000077283011760443087790000012140256135605267877_" class="st7" d="M417.93,382.32
				c-5.25,1.62-8.79,2.62-7.47,3.33c1.31,0.71,35.03-8.48,41.6-9.69c6.58-1.21,11.68-1.72,3.51-3.54c-7.3-1.63-11.98-1.1-16.32,0.41
				c-4.34,1.52-12.55,6-12.55,6s21.07-5.19,21.86-5.29c0.79-0.1,2.78-0.03-2.17,1.4C441.43,376.36,423.18,380.7,417.93,382.32z"/>
			<path id="XMLID_00000149353762142505311900000016768566623501247905_" class="st11" d="M428.82,378.3
				c2.93,0.38,4.69,1.92,4.9,2.83l0.43,10.11l48.15,27.69l-1.05,0.61l-48.21-27.78l-0.35-10.35
				C432.7,381.4,432.9,379.62,428.82,378.3z"/>
			<path id="XMLID_00000037670464638144440450000001387655634743536804_" class="st10" d="M382.38,455.57c0,0,1.06-21.7,1.86-38.04
				c-5.26,2.7-15.32,6.9-26.57,11.24c-4.63,1.79-24.61,9.29-31.48,11.17c0,0-1.47,0.3-2.1,0.43l39.87,24.96L382.38,455.57z"/>
		</g>
		<g id="Driver_Seat_00000170254170195427671020000010691685429255034045_">
			<path id="XMLID_00000060740362554852111320000010958377702723560874_" class="st9" d="M443.86,476.57l-7.83-0.15l-11.91-6.82
				c-1.94-1.11-5.17-1.27-7.21-0.35l-14.44,6.51l-9.9-0.19v5.78l0,0c0,0.65,0.46,1.32,1.4,1.86l25.92,14.96
				c1.94,1.12,4.92,0.88,6.66-0.53l16.1-13.07c0.81-0.65,1.18-1.44,1.19-2.21c0,0,0.02-0.01,0.02-0.01L443.86,476.57z"/>
			<path id="XMLID_00000133491927508273146530000011683287042398763192_" class="st2" d="M393.98,477.42l25.92,14.96
				c1.94,1.12,4.92,0.88,6.66-0.53l16.1-13.07c1.74-1.41,1.57-3.46-0.37-4.57l-18.16-10.4c-1.94-1.11-5.17-1.27-7.21-0.35
				l-22.75,10.26C392.12,474.65,392.04,476.3,393.98,477.42z"/>
			<path id="XMLID_00000137121715050444004920000001170160803999614356_" class="st0" d="M443.86,476.57v5.77l-0.02,0.02
				c0,0.77-0.37,1.56-1.18,2.21l-16.1,13.06c-0.84,0.69-1.98,1.09-3.15,1.2v-5.77c1.17-0.11,2.3-0.52,3.15-1.2l16.1-13.07
				C443.47,478.13,443.86,477.34,443.86,476.57z"/>
			<g id="XMLID_00000034783236782799250900000011811836707410760382_">
				<path id="XMLID_00000121994577680991693870000006915067885722257542_" class="st0" d="M452.68,478.16
					c0.03,0.67-0.19,1.14-0.55,1.37l-6.6,3.81v-0.01c0.38-0.2,0.6-0.68,0.57-1.37l-1.44-32.25c-0.06-1.35-1.05-2.98-2.21-3.65
					l-21.87-12.28c-0.6-0.35-1.18-0.37-1.64-0.13v-0.01l6.55-3.78v0.01c0.46-0.26,1.05-0.25,1.68,0.11l21.87,12.28
					c1.17,0.67,2.16,2.3,2.21,3.65L452.68,478.16z"/>
				<path id="XMLID_00000024709714031273303090000013144785560824639632_" class="st9" d="M420.57,433.78l21.87,12.28
					c1.16,0.67,2.16,2.3,2.21,3.65l1.43,32.26c0.06,1.34-0.84,1.89-2,1.21l-28.46-16.08c-1.16-0.67-1.95-2.29-1.75-3.62l4.23-28.5
					C418.31,433.64,419.41,433.11,420.57,433.78z"/>
				<path id="XMLID_00000088841900251866866380000014511920778959559567_" class="st2" d="M450.56,443.84l-6.59,3.8
					c-0.41-0.67-0.95-1.24-1.53-1.58l-21.87-12.28c-0.6-0.35-1.18-0.37-1.64-0.13v-0.01l6.55-3.78v0.01
					c0.46-0.26,1.05-0.25,1.68,0.11l21.87,12.28C449.62,442.6,450.16,443.17,450.56,443.84z"/>
			</g>
			<path id="XMLID_00000096769105045480580180000006242624703200880312_" class="st0" d="M441.53,435.85c0-1.92,0-4.8,0-8.03
				c0-5.78-3.69-12.59-8.24-15.22c-2.09-1.21-3.99-1.31-5.44-0.52l-0.01-0.01l-5.02,2.92l2.23,4.26v7.08c0,1.34,0.94,2.98,2.11,3.65
				l5.01,2.89l3.77,7.22l4.96-2.89l0,0l0.01,0l0,0C441.29,436.99,441.53,436.52,441.53,435.85z"/>
			<path id="XMLID_00000000929201559002862050000007240357421526951342_" class="st2" d="M433.29,424.04l6.46-3.73
				c-1.51-3.29-3.84-6.19-6.46-7.71c-2.09-1.21-3.99-1.31-5.44-0.52l-0.01-0.01l-5.02,2.92l2.23,4.26v1.39L433.29,424.04z"/>
			<path id="XMLID_00000032624725657739188450000010539849544252611249_" class="st9" d="M436.59,438.73c0-1.92,0-4.8,0-8.03
				c0-5.78-3.69-12.59-8.24-15.22c-4.55-2.63-8.24-0.07-8.24,5.71v8.03c0,1.34,0.94,2.98,2.11,3.65l12.26,7.08
				C435.64,440.61,436.59,440.07,436.59,438.73z"/>
			<path id="XMLID_00000156572481078616217980000013639847107824559762_" class="st8" d="M421.04,440.62
				c-1.89,6.99-2.81,14.27-2.72,21.83c0.02,1.34,0.91,3.12,1.98,3.92c3.72,2.77,7.85,5.16,12.39,7.14c1.23,0.54,2.3-0.16,2.36-1.5
				c0.39-8.74,0.52-16.89,0.07-23.68c-0.09-1.34-1.04-3.11-2.12-3.91c-2.96-2.16-5.98-3.87-9.04-5.23
				C422.74,438.66,421.39,439.32,421.04,440.62z"/>
			<path id="XMLID_00000123429238418626001520000000794170338530157451_" class="st11" d="M434.89,472.75
				c0.09-0.22,0.16-0.46,0.17-0.74c0.39-8.74,0.52-16.89,0.07-23.68c-0.04-0.67-0.3-1.44-0.68-2.14c-0.86-1.22-1.16,9.1-1.16,15.4
				c0.01,6.21,0.08,12.52,1.12,11.8c0.04-0.03,0.08-0.06,0.12-0.1C434.63,473.17,434.75,472.99,434.89,472.75z"/>
			<g id="XMLID_00000078740570324187317890000014585961891320081555_" class="st11">
				<path id="XMLID_00000002343189999109332760000001908667990966027169_" d="M419.76,461.92c0,0,0.19,0.11,0.5,0.32
					c0.31,0.22,0.77,0.5,1.3,0.85c1.07,0.7,2.51,1.6,3.98,2.44c1.47,0.85,2.98,1.63,4.12,2.2c0.57,0.29,1.05,0.54,1.39,0.7
					c0.34,0.17,0.53,0.27,0.53,0.27s-0.21-0.04-0.58-0.12c-0.37-0.09-0.9-0.21-1.51-0.42c-0.62-0.19-1.33-0.46-2.07-0.78
					c-0.37-0.17-0.76-0.33-1.13-0.53c-0.38-0.19-0.76-0.4-1.14-0.61c-0.75-0.44-1.48-0.91-2.14-1.39c-0.65-0.48-1.25-0.96-1.73-1.39
					c-0.49-0.43-0.86-0.83-1.12-1.09C419.9,462.09,419.76,461.92,419.76,461.92z"/>
				<path id="XMLID_00000101799151243838040050000010136523902842951604_" d="M419.76,457.84c0,0,0.19,0.11,0.5,0.32
					c0.31,0.22,0.77,0.5,1.3,0.85c1.07,0.7,2.51,1.6,3.98,2.44c1.47,0.85,2.98,1.63,4.12,2.2c0.57,0.29,1.05,0.54,1.39,0.7
					c0.34,0.17,0.53,0.27,0.53,0.27s-0.21-0.04-0.58-0.12c-0.37-0.09-0.9-0.21-1.51-0.42c-0.62-0.19-1.33-0.46-2.07-0.78
					c-0.37-0.17-0.76-0.33-1.13-0.53c-0.38-0.19-0.76-0.4-1.14-0.61c-0.75-0.44-1.48-0.91-2.14-1.39c-0.65-0.48-1.25-0.96-1.73-1.39
					c-0.49-0.43-0.86-0.83-1.12-1.09C419.9,458.01,419.76,457.84,419.76,457.84z"/>
				<path id="XMLID_00000052070578841403193080000015965278122743415680_" d="M420.6,454.47c0,0,0.17,0.1,0.47,0.29
					c0.29,0.2,0.71,0.45,1.21,0.77c0.99,0.64,2.32,1.46,3.69,2.19c1.37,0.74,2.78,1.41,3.85,1.93c0.53,0.26,0.98,0.48,1.29,0.64
					c0.31,0.15,0.49,0.25,0.49,0.25s-0.2-0.03-0.54-0.11c-0.34-0.08-0.83-0.18-1.4-0.35c-0.58-0.16-1.24-0.39-1.93-0.66
					c-0.34-0.15-0.71-0.28-1.06-0.46c-0.36-0.17-0.71-0.35-1.07-0.53c-0.35-0.2-0.7-0.4-1.03-0.61c-0.34-0.2-0.65-0.43-0.96-0.64
					c-0.61-0.44-1.15-0.88-1.59-1.29c-0.45-0.4-0.79-0.77-1.03-1.02C420.73,454.63,420.6,454.47,420.6,454.47z"/>
				<path id="XMLID_00000107585830428587987210000004409933820669171606_" d="M420.94,450.67c0,0,0.17,0.1,0.45,0.28
					c0.28,0.19,0.69,0.43,1.17,0.74c0.96,0.62,2.24,1.4,3.57,2.1c1.33,0.7,2.7,1.33,3.74,1.83c0.52,0.25,0.95,0.47,1.25,0.61
					c0.3,0.15,0.47,0.25,0.47,0.25s-0.19-0.03-0.52-0.1c-0.33-0.08-0.8-0.17-1.36-0.33c-0.56-0.15-1.2-0.36-1.88-0.61
					c-0.34-0.14-0.69-0.26-1.03-0.43c-0.35-0.16-0.69-0.33-1.04-0.5c-0.34-0.19-0.68-0.38-1-0.58c-0.33-0.19-0.63-0.42-0.93-0.62
					c-0.59-0.42-1.11-0.85-1.54-1.25c-0.43-0.39-0.76-0.75-0.99-0.99C421.07,450.82,420.94,450.67,420.94,450.67z"/>
				<path id="XMLID_00000025420438066679034010000007778188885245323940_" d="M421.52,447.04c0,0,0.16,0.09,0.43,0.26
					c0.27,0.17,0.65,0.41,1.1,0.7c0.91,0.58,2.11,1.31,3.37,1.94c1.26,0.63,2.57,1.19,3.55,1.65c0.98,0.45,1.62,0.81,1.62,0.81
					s-0.72-0.1-1.77-0.37c-1.05-0.27-2.44-0.71-3.75-1.37c-0.32-0.17-0.65-0.35-0.96-0.53c-0.31-0.18-0.6-0.39-0.88-0.58
					c-0.56-0.4-1.05-0.81-1.45-1.18C421.97,447.62,421.52,447.04,421.52,447.04z"/>
				<path id="XMLID_00000152966979996194032080000004124692749413312897_" d="M422.87,443.55c0,0,0.56,0.32,1.35,0.82
					c0.79,0.5,1.84,1.13,2.93,1.69c1.09,0.57,2.21,1.1,3.05,1.52c0.84,0.42,1.39,0.75,1.39,0.75s-0.64-0.07-1.55-0.31
					c-0.92-0.23-2.12-0.65-3.26-1.24c-0.28-0.16-0.56-0.31-0.83-0.48c-0.27-0.16-0.52-0.34-0.77-0.52
					c-0.49-0.35-0.91-0.72-1.25-1.05C423.25,444.07,422.87,443.55,422.87,443.55z"/>
			</g>
			<path id="XMLID_00000178189081782577759170000015618584291201014432_" class="st8" d="M414.4,469.96
				c-4.09,0.73-8.13,2.82-12.14,5.83c-1.07,0.81-1.07,2.19,0.01,3c4.49,3.36,9.7,6.34,15.61,8.96c1.23,0.54,3.23,0.51,4.42-0.12
				c3.53-1.85,6.67-4.04,9.33-6.66c0.96-0.94,0.8-2.43-0.3-3.21c-4.12-2.96-8.21-5.45-12.25-7.18
				C417.85,470.05,415.73,469.72,414.4,469.96z"/>
			<g id="XMLID_00000145767089442588973590000005836552893934871475_" class="st5">
				<path id="XMLID_00000049913370031917747200000012463985846586666652_" d="M404.45,477.29c0,0,0.26,0.07,0.69,0.2
					c0.44,0.14,1.07,0.33,1.81,0.62c1.48,0.55,3.4,1.42,5.24,2.46c1.83,1.04,3.57,2.25,4.79,3.25c1.22,1,1.96,1.76,1.96,1.76
					s-0.89-0.55-2.23-1.38c-1.33-0.83-3.11-1.91-4.92-2.93c-1.81-1.03-3.64-2.01-5.03-2.74c-0.69-0.37-1.27-0.68-1.67-0.89
					C404.68,477.43,404.45,477.29,404.45,477.29z"/>
				<path id="XMLID_00000166636748597507012880000002577264863884727216_" d="M408.34,475.05c0,0,0.26,0.07,0.69,0.2
					c0.44,0.14,1.07,0.33,1.81,0.62c1.48,0.55,3.4,1.42,5.24,2.46c1.83,1.04,3.57,2.25,4.79,3.25c1.22,1,1.96,1.76,1.96,1.76
					s-0.89-0.55-2.23-1.38c-1.33-0.83-3.11-1.91-4.92-2.93c-1.81-1.03-3.64-2.01-5.03-2.74c-0.69-0.37-1.27-0.68-1.67-0.89
					C408.57,475.18,408.34,475.05,408.34,475.05z"/>
				<path id="XMLID_00000052794945623993614010000014539707293996014515_" d="M411.69,473.15c0,0,0.26,0.07,0.69,0.2
					c0.44,0.14,1.07,0.33,1.81,0.62c1.48,0.55,3.4,1.42,5.24,2.46c1.83,1.04,3.57,2.25,4.79,3.25c1.22,1,1.96,1.76,1.96,1.76
					s-0.89-0.55-2.23-1.38c-1.33-0.83-3.11-1.91-4.92-2.93c-1.81-1.03-3.64-2.01-5.03-2.74c-0.69-0.37-1.27-0.68-1.67-0.89
					C411.92,473.28,411.69,473.15,411.69,473.15z"/>
				<path id="XMLID_00000166652623970439700710000003153883422460975791_" d="M415.34,471.59c0,0,0.24,0.06,0.64,0.18
					c0.4,0.13,0.98,0.3,1.66,0.55c1.36,0.5,3.13,1.29,4.82,2.24c1.68,0.96,3.28,2.07,4.39,3c1.12,0.93,1.78,1.63,1.78,1.63
					s-0.21-0.12-0.57-0.34c-0.36-0.22-0.87-0.53-1.49-0.91c-1.22-0.75-2.86-1.74-4.52-2.67c-1.66-0.94-3.34-1.84-4.61-2.52
					c-0.63-0.34-1.16-0.63-1.53-0.83C415.55,471.71,415.34,471.59,415.34,471.59z"/>
			</g>
		</g>
		<g id="Codriver_Seat_00000147193385318274028420000008114618361488096920_">
			<path id="XMLID_00000157989533798124423860000002142476031834253204_" class="st9" d="M408.77,456.74l-7.83-0.15l-11.91-6.82
				c-1.94-1.11-5.17-1.27-7.21-0.35l-14.44,6.51l-9.9-0.19v5.78l0,0c0,0.65,0.46,1.32,1.4,1.86l25.92,14.96
				c1.94,1.12,4.92,0.88,6.66-0.53l16.1-13.07c0.81-0.65,1.18-1.44,1.18-2.21c0,0,0.02-0.01,0.02-0.01L408.77,456.74z"/>
			<path id="XMLID_00000096776914806655732180000006575255462406148761_" class="st2" d="M358.88,457.59l25.92,14.96
				c1.94,1.12,4.92,0.88,6.66-0.53l16.1-13.07c1.74-1.41,1.57-3.46-0.37-4.57l-18.16-10.4c-1.94-1.11-5.17-1.27-7.21-0.35
				l-22.75,10.26C357.03,454.82,356.94,456.47,358.88,457.59z"/>
			<path id="XMLID_00000153698220625860550090000002108232072854412211_" class="st0" d="M408.77,456.75v5.77
				c0,0-0.02,0.02-0.02,0.02c0,0.77-0.37,1.56-1.18,2.21l-16.1,13.07c-0.84,0.69-1.98,1.09-3.15,1.2v-5.77
				c1.17-0.11,2.3-0.52,3.15-1.2l16.1-13.07C408.37,458.3,408.77,457.52,408.77,456.75z"/>
			<path id="XMLID_00000075842720832295236670000008176509145429552824_" class="st0" d="M411.27,455.04
				c0.03,0.67-0.19,1.14-0.55,1.37l-6.6,3.81v-0.01c0.38-0.2,0.6-0.68,0.57-1.37l-1.44-32.25c-0.06-1.35-1.05-2.98-2.21-3.65
				l-15.55-8.98c-0.6-0.35-1.18-0.37-1.64-0.13v-0.01l6.55-3.78v0.01c0.46-0.26,1.05-0.25,1.68,0.11l15.55,8.98
				c1.17,0.67,2.16,2.3,2.21,3.65L411.27,455.04z"/>
			<path id="XMLID_00000176010160461927461490000001360916272471379351_" class="st9" d="M385.48,413.96l15.55,8.98
				c1.16,0.67,2.16,2.3,2.21,3.65l1.43,32.26c0.06,1.34-0.84,1.89-2,1.21l-22.14-12.78c-1.16-0.67-1.95-2.29-1.75-3.62l4.23-28.5
				C383.21,413.82,384.32,413.29,385.48,413.96z"/>
			<path id="XMLID_00000026884507046694601450000015863184275680046004_" class="st2" d="M409.15,420.71l-6.59,3.8
				c-0.41-0.67-0.95-1.24-1.53-1.58l-15.55-8.98c-0.6-0.35-1.18-0.37-1.64-0.13v-0.01l6.55-3.78v0.01c0.46-0.26,1.05-0.25,1.68,0.11
				l15.55,8.98C408.2,419.47,408.74,420.05,409.15,420.71z"/>
			<path id="XMLID_00000108991471114902979020000006722229461081261224_" class="st0" d="M406.43,416.02c0-1.92,0-4.8,0-8.03
				c0-5.78-3.69-12.59-8.24-15.22c-2.09-1.2-3.99-1.31-5.44-0.52l-0.01-0.01l-5.02,2.92l2.23,4.26v7.08c0,1.34,0.94,2.98,2.11,3.65
				l5.01,2.89l3.77,7.22l4.96-2.89l0,0l0.01,0l0,0C406.2,417.16,406.43,416.69,406.43,416.02z"/>
			<path id="XMLID_00000108997269181188385200000014158482634934506649_" class="st2" d="M398.2,404.21l6.46-3.73
				c-1.51-3.29-3.84-6.19-6.46-7.71c-2.09-1.2-3.99-1.31-5.44-0.52l-0.01-0.01l-5.02,2.92l2.23,4.26v1.39L398.2,404.21z"/>
			<path id="XMLID_00000062172561968729036080000018012203400384995255_" class="st9" d="M401.49,418.9c0-1.92,0-4.8,0-8.03
				c0-5.78-3.69-12.59-8.24-15.22c-4.55-2.63-8.24-0.07-8.24,5.71v8.03c0,1.34,0.94,2.98,2.11,3.65l12.26,7.08
				C400.55,420.79,401.49,420.24,401.49,418.9z"/>
			<path id="XMLID_00000085936343837917870750000012384622249101812141_" class="st8" d="M385.95,420.79
				c-1.89,6.99-2.81,14.27-2.72,21.83c0.02,1.34,0.9,3.12,1.98,3.92c3.72,2.77,7.85,5.16,12.39,7.14c1.23,0.54,2.3-0.16,2.36-1.5
				c0.39-8.74,0.52-16.89,0.07-23.68c-0.09-1.34-1.04-3.11-2.12-3.91c-2.96-2.16-5.98-3.87-9.04-5.23
				C387.64,418.84,386.3,419.49,385.95,420.79z"/>
			<path id="XMLID_00000055695218115440097460000003185451798436020415_" class="st11" d="M399.79,452.93
				c0.09-0.22,0.16-0.46,0.17-0.74c0.39-8.74,0.52-16.89,0.07-23.68c-0.04-0.67-0.3-1.44-0.68-2.14c-0.86-1.22-1.16,9.1-1.16,15.4
				c0.01,6.21,0.08,12.52,1.12,11.8c0.04-0.03,0.08-0.06,0.12-0.1C399.54,453.35,399.66,453.16,399.79,452.93z"/>
			<g id="XMLID_00000096742658542213554410000000619400901225854654_" class="st11">
				<path id="XMLID_00000005974230632820483780000012473355823115727023_" d="M384.67,442.09c0,0,0.19,0.11,0.5,0.32
					c0.31,0.22,0.77,0.5,1.3,0.85c1.07,0.7,2.51,1.6,3.98,2.44c1.47,0.85,2.98,1.63,4.12,2.2c0.57,0.29,1.05,0.54,1.39,0.7
					c0.34,0.17,0.53,0.27,0.53,0.27s-0.21-0.04-0.58-0.12c-0.37-0.09-0.9-0.21-1.51-0.42c-0.62-0.19-1.33-0.46-2.07-0.78
					c-0.37-0.17-0.76-0.33-1.13-0.53c-0.38-0.19-0.76-0.4-1.14-0.61c-0.75-0.44-1.48-0.91-2.14-1.39c-0.65-0.48-1.25-0.96-1.73-1.39
					c-0.49-0.43-0.86-0.83-1.12-1.09C384.81,442.26,384.67,442.09,384.67,442.09z"/>
				<path id="XMLID_00000000906514454447973740000009116503183889847740_" d="M384.67,438.02c0,0,0.19,0.11,0.5,0.32
					c0.31,0.22,0.77,0.5,1.3,0.85c1.07,0.7,2.51,1.6,3.98,2.44c1.47,0.85,2.98,1.63,4.12,2.2c0.57,0.29,1.05,0.54,1.39,0.7
					c0.34,0.17,0.53,0.27,0.53,0.27s-0.21-0.04-0.58-0.12c-0.37-0.09-0.9-0.21-1.51-0.42c-0.62-0.19-1.33-0.46-2.07-0.78
					c-0.37-0.17-0.76-0.33-1.13-0.53c-0.38-0.19-0.76-0.4-1.14-0.61c-0.75-0.44-1.48-0.91-2.14-1.39c-0.65-0.48-1.25-0.96-1.73-1.39
					c-0.49-0.43-0.86-0.83-1.12-1.09C384.81,438.18,384.67,438.02,384.67,438.02z"/>
				<path id="XMLID_00000142142496544443246840000007485981843222475678_" d="M385.51,434.65c0,0,0.17,0.1,0.47,0.29
					c0.29,0.2,0.71,0.45,1.21,0.77c0.99,0.64,2.32,1.46,3.69,2.19c1.37,0.74,2.78,1.41,3.85,1.93c0.53,0.26,0.98,0.48,1.29,0.64
					c0.31,0.15,0.49,0.25,0.49,0.25s-0.2-0.03-0.54-0.11c-0.34-0.08-0.83-0.18-1.4-0.35c-0.58-0.16-1.24-0.39-1.93-0.66
					c-0.34-0.15-0.71-0.28-1.06-0.46c-0.36-0.17-0.71-0.35-1.07-0.53c-0.35-0.2-0.7-0.4-1.03-0.61c-0.34-0.2-0.65-0.43-0.96-0.64
					c-0.61-0.44-1.15-0.88-1.59-1.29c-0.45-0.4-0.79-0.77-1.03-1.02C385.64,434.8,385.51,434.65,385.51,434.65z"/>
				<path id="XMLID_00000075162160138547166600000000914657185674576794_" d="M385.85,430.84c0,0,0.17,0.1,0.45,0.28
					c0.28,0.19,0.69,0.43,1.17,0.74c0.96,0.62,2.24,1.4,3.57,2.1c1.33,0.7,2.7,1.33,3.74,1.83c0.52,0.25,0.95,0.47,1.25,0.61
					c0.3,0.15,0.47,0.25,0.47,0.25s-0.19-0.03-0.52-0.1c-0.33-0.08-0.8-0.17-1.36-0.33c-0.56-0.15-1.2-0.36-1.88-0.61
					c-0.34-0.14-0.69-0.26-1.03-0.43c-0.35-0.16-0.69-0.33-1.04-0.5c-0.34-0.19-0.68-0.38-1-0.58c-0.33-0.19-0.63-0.42-0.93-0.62
					c-0.59-0.42-1.11-0.85-1.54-1.25c-0.43-0.39-0.76-0.75-0.99-0.99C385.97,430.99,385.85,430.84,385.85,430.84z"/>
				<path id="XMLID_00000142854782471355526110000008335533356057391804_" d="M386.43,427.21c0,0,0.16,0.09,0.43,0.26
					c0.27,0.17,0.65,0.41,1.1,0.7c0.91,0.58,2.11,1.31,3.37,1.94c1.26,0.63,2.57,1.19,3.55,1.65c0.98,0.45,1.62,0.81,1.62,0.81
					s-0.72-0.1-1.77-0.37c-1.05-0.27-2.44-0.71-3.75-1.37c-0.32-0.17-0.65-0.35-0.96-0.53c-0.31-0.18-0.6-0.39-0.88-0.58
					c-0.56-0.4-1.05-0.81-1.45-1.18C386.88,427.79,386.43,427.21,386.43,427.21z"/>
				<path id="XMLID_00000127722804935804174450000010205106575447575991_" d="M387.78,423.72c0,0,0.56,0.32,1.35,0.82
					c0.79,0.5,1.84,1.13,2.93,1.69c1.09,0.57,2.21,1.1,3.05,1.52c0.84,0.42,1.39,0.75,1.39,0.75s-0.64-0.07-1.55-0.31
					c-0.92-0.23-2.12-0.65-3.26-1.24c-0.28-0.16-0.56-0.31-0.83-0.48c-0.27-0.16-0.52-0.34-0.77-0.52
					c-0.49-0.35-0.91-0.72-1.25-1.05C388.15,424.24,387.78,423.72,387.78,423.72z"/>
			</g>
			<path id="XMLID_00000057138444283462339100000004102805904817272202_" class="st8" d="M379.31,450.13
				c-4.09,0.73-8.13,2.82-12.14,5.83c-1.07,0.81-1.07,2.19,0.01,3c4.49,3.36,9.7,6.34,15.61,8.96c1.23,0.54,3.23,0.51,4.42-0.12
				c3.53-1.85,6.67-4.04,9.33-6.66c0.96-0.94,0.8-2.43-0.3-3.21c-4.12-2.96-8.21-5.45-12.25-7.18
				C382.75,450.22,380.63,449.9,379.31,450.13z"/>
			<g id="XMLID_00000178181312069159258120000004272669940648128176_" class="st5">
				<path id="XMLID_00000129175266081574155290000003431438392886914487_" d="M369.35,457.47c0,0,0.26,0.07,0.69,0.2
					c0.44,0.14,1.07,0.33,1.81,0.62c1.48,0.55,3.4,1.42,5.24,2.46c1.83,1.04,3.57,2.25,4.79,3.25c1.22,1,1.96,1.76,1.96,1.76
					s-0.89-0.55-2.23-1.38c-1.33-0.83-3.11-1.91-4.92-2.93c-1.81-1.03-3.64-2.01-5.03-2.74c-0.69-0.37-1.27-0.68-1.67-0.89
					C369.58,457.6,369.35,457.47,369.35,457.47z"/>
				<path id="XMLID_00000178921424622502740030000006447792252464227491_" d="M373.25,455.23c0,0,0.26,0.07,0.69,0.2
					c0.44,0.14,1.07,0.33,1.81,0.62c1.48,0.55,3.4,1.42,5.24,2.46c1.83,1.04,3.57,2.25,4.79,3.25c1.22,1,1.96,1.76,1.96,1.76
					s-0.89-0.55-2.23-1.38c-1.33-0.83-3.11-1.91-4.92-2.93c-1.81-1.03-3.64-2.01-5.03-2.74c-0.69-0.37-1.27-0.68-1.67-0.89
					C373.48,455.36,373.25,455.23,373.25,455.23z"/>
				<path id="XMLID_00000042009735804250894310000017572968127643447994_" d="M376.6,453.32c0,0,0.26,0.07,0.69,0.2
					c0.44,0.14,1.07,0.33,1.81,0.62c1.48,0.55,3.4,1.42,5.24,2.46c1.83,1.04,3.57,2.25,4.79,3.25c1.22,1,1.96,1.76,1.96,1.76
					s-0.89-0.55-2.23-1.38c-1.33-0.83-3.11-1.91-4.92-2.93c-1.81-1.03-3.64-2.01-5.03-2.74c-0.69-0.37-1.27-0.68-1.67-0.89
					C376.82,453.46,376.6,453.32,376.6,453.32z"/>
				<path id="XMLID_00000122000134364955226640000011138777142253364146_" d="M380.25,451.76c0,0,0.24,0.06,0.64,0.18
					c0.4,0.13,0.98,0.3,1.66,0.55c1.36,0.5,3.13,1.29,4.82,2.24c1.68,0.95,3.28,2.07,4.39,3c1.12,0.93,1.78,1.63,1.78,1.63
					s-0.21-0.12-0.57-0.34c-0.36-0.22-0.87-0.53-1.49-0.91c-1.22-0.75-2.86-1.74-4.52-2.67c-1.66-0.94-3.34-1.84-4.61-2.52
					c-0.63-0.34-1.16-0.63-1.53-0.83C380.45,451.89,380.25,451.76,380.25,451.76z"/>
			</g>
		</g>
		<g id="Legs_00000156569153739820861710000002667572364524032132_">
			<path id="XMLID_00000126304799249986430810000008200936460507603376_" class="st14" d="M418.38,465.94c0,0-14.22,4.18-19.39,6.08
				c-5.17,1.91-7.51,4.06-7.96,7.56c-0.45,3.5-0.41,6.21-0.41,6.21l25.18,19.97l31.4-31.46L418.38,465.94z"/>
			<path id="XMLID_00000021086883089394923830000000184331702603885699_" class="st15" d="M402.16,494.95c0,0,2.23-8.01,4.39-11.84
				c2.15-3.83,12.08-7.54,12.08-7.54s-2.37-1.93-2.83-4.92c0,0-0.63,2.2,0.73,4.52c0,0-6.61,1.78-10.04,3.94
				c-4.44,2.79-6.21,14.33-6.21,14.33L402.16,494.95z"/>
		</g>
		<g id="Arm_with_steering_wheel_00000103962004587528757450000015161089142481027505_">
			<g id="XMLID_00000141417679445336390330000009132698176520560575_">
				<path id="XMLID_00000030477179863476124050000000391597508478876351_" class="st16" d="M420.02,436.21
					c-2.4-1.03-4.27,0.25-7.55,3.63c-3.48,3.59-8.71,8.94-8.71,8.94l-18.98,6.43l2.34,6.48c0,0,14.39-2.38,17.6-3.17
					c4.23-1.05,6.21-2.24,8.49-4.2c3.16-2.72,7.28-6.97,7.28-6.97L420.02,436.21z"/>
				<path id="XMLID_00000158003648465591056180000012906186335560252345_" class="st2" d="M382.38,455.57
					c-0.91-0.4-2.03-0.71-3.02-0.44c-0.79,0.22-1.48,0.81-1.74,1.58c-0.08,0.25-0.12,0.53-0.26,0.75c-0.1,0.16-0.23,0.28-0.38,0.4
					c-0.68,0.55-1.52,0.92-2.01,1.64c-0.42,0.62-0.52,1.4-0.57,2.15c-0.07,1.28-0.02,2.61,0.53,3.78c0.55,1.16,1.68,2.12,2.97,2.14
					c0.48,0.01,0.96-0.12,1.4-0.3c0.76-0.31,1.44-0.77,2.08-1.27c0.65-0.5,1.35-0.69,2.1-1.03c1.68-0.75,2.8-2.02,3.79-3.51
					c0.41-1.36-0.9-5.18-1.92-5.55C384.82,455.73,382.83,455.77,382.38,455.57z"/>
				<path id="XMLID_00000013189434665057112870000001432073147779483017_" class="st9" d="M384.72,456.41c0,0,1.44,0.99,2,2.29
					c0.55,1.3,0.41,2.99,0.41,2.99l-0.43,0.6c0,0,0.56-0.11,1.13-0.85c0.57-0.74,0.28-2.92-0.25-3.89
					c-0.53-0.97-1.88-2.29-2.71-2.12c-0.83,0.17-0.91,1.06-0.91,1.06L384.72,456.41z"/>
			</g>
			<g id="XMLID_00000096775740532429689620000005829528320957887931_">
				<g id="XMLID_00000142892263476284612330000009790372062759311752_">
					<path id="XMLID_00000055695844130470280690000016920145668035296700_" class="st0" d="M393.22,482.66
						c-1.62,0-3.37-0.52-5.15-1.55c-5.85-3.38-10.44-11.32-10.44-18.08c0-3.6,1.31-6.34,3.68-7.72c2.37-1.37,5.4-1.13,8.52,0.67v0
						c5.85,3.38,10.44,11.32,10.44,18.08c0,3.6-1.31,6.34-3.68,7.72C395.57,482.37,394.44,482.66,393.22,482.66z M384.68,457.98
						c-0.6,0-1.15,0.13-1.6,0.39c-1.22,0.7-1.92,2.4-1.92,4.66c0,5.43,3.97,12.31,8.67,15.02c1.96,1.13,3.78,1.37,4.99,0.67
						c1.22-0.7,1.92-2.4,1.92-4.66c0-5.43-3.97-12.31-8.67-15.03v0C386.85,458.34,385.68,457.98,384.68,457.98z"/>
				</g>
				<g id="XMLID_00000109716169549332927650000002473486031426205871_">
					<path id="XMLID_00000082360556098968118400000015619291729150488452_" class="st0" d="M388.95,464.69
						c1.84,1.07,3.34,3.65,3.34,5.79c0,2.13-1.5,2.99-3.34,1.93c-1.84-1.07-3.34-3.65-3.34-5.79S387.11,463.63,388.95,464.69z"/>
				</g>
				<g id="XMLID_00000170271223836168580140000005338255321538892479_">
					<polygon id="XMLID_00000044160598150653938340000003725366265512382854_" class="st0" points="388.56,469.47 379.99,458.81 
						381.37,457.7 389.34,467.63 397.15,466.93 397.3,468.69 					"/>
				</g>
				<g id="XMLID_00000162344458099453400950000009221962863580585101_">
					
						<rect id="XMLID_00000051341462346815798250000000156478919919801225_" x="388.07" y="468.55" class="st0" width="1.76" height="11.04"/>
				</g>
				<path id="XMLID_00000173876301190447803500000001419286551359786160_" class="st2" d="M377.63,459.67
					c0.95-0.07,1.87,0.13,2.52,1.99c0.51,1.47,1.01,5.72-1.89,5.92C374.77,466.96,377.63,459.67,377.63,459.67z"/>
			</g>
		</g>
		<g id="Character_00000065759798335670177850000013801168578231260295_">
			<path id="XMLID_00000145751513767484092980000013156192659074520747_" class="st0" d="M418.51,464.74
				c-0.86,0.66-0.87,2.53,0.37,3.85c1.24,1.32,4.93,4.02,10.89,4.83c6.69,0.91,11.98-1.04,14.5-2.77c2.61-1.79,1.18-3.57,1.18-3.57
				L418.51,464.74z"/>
			<g id="XMLID_00000152957252529007408390000002621784020434786724_">
				<path id="XMLID_00000150074753568415114810000003753514585500019124_" class="st0" d="M427.32,442.76
					c0.31,4.15-2.29,7.73-5.8,7.99c-3.51,0.26-5.65-3.08-5.96-7.23c-0.31-4.15,1.99-8.26,4.93-7.29
					C424,436.15,427.01,438.61,427.32,442.76z"/>
				<path id="XMLID_00000182515259486536588240000016137099602512851891_" class="st17" d="M420.02,436.21
					c-1.09,1.11-2.52,4.12-2.12,8.66c0.28,3.21,0.61,6.17,0.31,9.89c-0.21,2.58-0.89,6.61,0.29,9.98c0.63,1.78,4.8,5.31,11.15,6.55
					c6.35,1.24,14.63-1.67,16.12-4.76c1.54-3.2,2-11.51,1.69-15.5c-0.32-3.99-1.35-12.11-4.71-15.58
					C433.5,430.03,426.29,431.45,420.02,436.21z"/>
				<path id="XMLID_00000089536130363265250250000012919542317136354199_" class="st15" d="M422.66,453.79
					c-1.79,0.08-3.78,0.25-5.42,1.77c-1.64,1.52-1.6,4.39-1.21,5.53c0.55,1.61,2.04,1.98,2.04,1.98c-0.14-0.93-0.36-2.86-0.17-3.9
					c0.17-0.92,0.21-3.06,4.68-2.99C422.44,455.97,422.37,454.08,422.66,453.79z"/>
			</g>
			<path id="XMLID_00000083060894972027419630000014231245219465313704_" class="st2" d="M439.18,440.19
				c-4.79,2.77-12.55,2.77-17.35,0c-3.04-1.75-4.01-3.89-3.2-6.15c2.63,3.81,6.89,6.01,11.87,6.01c4.98,0,9.25-2.2,11.88-6.01
				C443.2,436.3,442.22,438.44,439.18,440.19z"/>
			
				<ellipse id="XMLID_00000111156344182061403920000017991503336190546324_" transform="matrix(0.8507 -0.5257 0.5257 0.8507 -159.3246 289.857)" class="st2" cx="430.51" cy="425.35" rx="14.71" ry="14.71"/>
			<path id="XMLID_00000045580327521066173130000015518289832339382925_" class="st14" d="M430.51,410.64
				c-4.3,0-9.41,2.24-12.15,6.41c-0.44,1.14,0.65,3.39,5.35,5.98c3.66,2.01,8.72,1.39,11.62,0.61c2.9-0.78,5.52,11.92-0.63,15.8
				c6.08-1.81,10.51-7.43,10.51-14.1C445.22,417.23,438.63,410.64,430.51,410.64z"/>
			<path id="XMLID_00000104666931143712080300000006123086280754675857_" class="st18" d="M418.36,419.94
				c-0.97-0.22-2.6,7.22,0,11.76c2.6,4.54-0.64-4.97,6.97-4.75c7.18,0.21,10.16-1.38,10.43-2.14c0.42-1.18-3.66,1.65-9.89-0.13
				C419.64,422.91,418.99,420.09,418.36,419.94z"/>
			<path id="XMLID_00000098194200444019646760000012894962017397959318_" class="st18" d="M418.22,421.55c0,0-2.15,9.33,3.22,14.09
				s13.31,2.76,13.31,2.76s-6.79,0.49-12.31-4.18C417.32,429.89,418.22,421.55,418.22,421.55z"/>
			<path id="XMLID_00000024001051909531153080000004512412358477312191_" class="st19" d="M431.47,410.69
				c3.11,0.75,8.33,5.91,9.82,10.38c1.08,3.25,2.64,11.06-4.41,17.53c4.93-2.37,8.34-7.41,8.34-13.25
				C445.22,417.55,439.15,411.19,431.47,410.69z"/>
			<g id="XMLID_00000160883009308590602720000016504068790557231802_">
				<path id="XMLID_00000171708762116687249700000014204256694335242901_" class="st14" d="M430.51,440.28
					c-8.23,0-14.93-6.7-14.93-14.93c0-8.23,6.7-14.93,14.93-14.93s14.93,6.7,14.93,14.93C445.44,433.59,438.74,440.28,430.51,440.28
					z M430.51,410.86c-7.99,0-14.49,6.5-14.49,14.49c0,7.99,6.5,14.49,14.49,14.49c7.99,0,14.49-6.5,14.49-14.49
					C445,417.36,438.5,410.86,430.51,410.86z"/>
			</g>
			<g id="XMLID_00000058553678260434021050000013603145497748274078_">
				<path id="XMLID_00000119833650238971051630000017427480895263082626_" class="st8" d="M423.63,453.71l-0.58-0.06
					c-0.25-0.03-0.48,0.15-0.53,0.4c-0.07,0.43-0.14,1.14-0.01,1.95c0.04,0.22,0.21,0.39,0.44,0.41l0.94,0.09L423.63,453.71z"/>
				<path id="XMLID_00000117655040791890471410000013220814018836550550_" class="st9" d="M425.73,449.11l8.23,2.04
					c1.18,0.29,2.13,1.51,2.13,2.72l0,4.88c0,1.21-0.95,1.96-2.13,1.67l-8.23-2.04c-1.18-0.29-2.13-1.51-2.13-2.72v-4.88
					C423.59,449.57,424.55,448.82,425.73,449.11z"/>
				<path id="XMLID_00000033353858281007128230000010055181799824928668_" class="st8" d="M426.25,451.25
					c0.71,0.17,1.28,0.91,1.28,1.63c0,0.73-0.57,1.17-1.28,1c-0.71-0.17-1.28-0.91-1.28-1.63
					C424.97,451.52,425.54,451.07,426.25,451.25z"/>
				<path id="XMLID_00000035519611882246846380000000081081906424289193_" class="st8" d="M426.25,454.8
					c0.71,0.17,1.28,0.91,1.28,1.63c0,0.73-0.57,1.17-1.28,1c-0.71-0.17-1.28-0.91-1.28-1.63
					C424.97,455.08,425.54,454.63,426.25,454.8z"/>
			</g>
		</g>
		<g id="Car_00000171708778484673795300000014834117289155160727_">
			<g id="Back_Car_00000154397283415224357060000008934883265342040763_">
				<g id="XMLID_00000041261138563758712990000007940102697700672387_">
					<path id="XMLID_00000077294929911071649890000013524185784269613455_" class="st9" d="M462.02,431.08
						c0,3.38,0.97,11.64-0.05,16.77c-1.02,5.12-3.87,7.42-14.4,13.57c-10.53,6.15-34.78,20.17-34.78,20.17l31.57,0.78l17.37-8.9
						l5.9-19.19l0.46-21.59l-3.1-1.65L462.02,431.08z"/>
					<g id="XMLID_00000111181756809797932700000017607879903088528051_">
						<path id="XMLID_00000161593963570762601100000016925861480476698504_" class="st8" d="M468.1,432.69l-0.03,1.1
							c-0.41,1.1-1.1,2.6-2.06,3.18c-0.54,0.33-1.14,0.47-1.7,0.47c-1.1,0-2.05-0.56-2.11-1.46c-0.02-0.24-0.03-0.48-0.04-0.72
							c-0.1-1.71-0.15-3.15-0.15-4.18l2.99-0.04L468.1,432.69z"/>
						<path id="XMLID_00000080202118288308275350000010180128425644677041_" class="st10" d="M468.1,432.69l-0.03,1.1
							c-0.41,1.1-1.1,2.6-2.06,3.18c-0.54,0.33-1.14,0.47-1.7,0.47c-1.1,0-2.05-0.56-2.11-1.46c-0.02-0.24-0.03-0.48-0.04-0.72
							c-0.1-1.71-0.15-3.15-0.15-4.18l2.99-0.04L468.1,432.69z"/>
					</g>
				</g>
				<g id="XMLID_00000047776037994629052660000012209042936225602461_">
					<polygon id="XMLID_00000044893739530589030970000017516568551020536964_" class="st8" points="533.62,451.14 506.88,435.7 
						521.74,427.12 536.2,436.25 					"/>
					<polygon id="XMLID_00000002361042932618036990000013504483681652603788_" class="st20" points="533.62,451.14 506.88,435.7 
						521.74,427.12 536.2,436.25 					"/>
				</g>
				<g id="XMLID_00000173846817327746883310000006136930954296837510_">
					<path id="XMLID_00000033327645327103436530000012910686489188531606_" class="st9" d="M522.35,447.48l3.84-7.63l-9.14-5.29l0,0
						c-2.91-1.67-6.78-1.48-11.03,0.97c-9.03,5.21-16.34,18.65-16.35,30.03c0,5.95,2.01,10.16,5.22,12.06l0,0l0.13,0.07
						c0.01,0,0.01,0.01,0.02,0.01l9.37,5.41l4.05-8.05C516.13,469.2,522.05,457.62,522.35,447.48z"/>
					<path id="XMLID_00000138552282831826124910000013421465157299253176_" class="st21" d="M522.35,447.48l3.84-7.63l-9.14-5.29
						l0,0c-2.91-1.67-6.78-1.48-11.03,0.97c-9.03,5.21-16.34,18.65-16.35,30.03c0,5.95,2.01,10.16,5.22,12.06l0,0l0.13,0.07
						c0.01,0,0.01,0.01,0.02,0.01l9.37,5.41l4.05-8.05C516.13,469.2,522.05,457.62,522.35,447.48z"/>
					<path id="XMLID_00000163034642063638869830000007522041709596416387_" class="st9" d="M531.88,452.17
						c0,9.8-5.44,21.15-12.73,27.43c-0.01,0.01-0.02,0.02-0.03,0.03c-1.16,0.99-2.36,1.86-3.58,2.57
						c-9.03,5.22-16.35,0.22-16.34-11.15c0-8.59,4.18-18.37,10.11-24.88c0.01-0.01,0.04-0.03,0.05-0.05
						c1.91-2.09,3.99-3.83,6.18-5.09C524.56,435.81,531.88,440.8,531.88,452.17z"/>
					<path id="XMLID_00000117662862662835517860000018054793482668448678_" class="st2" d="M515.53,447.88
						c5.74-3.32,10.4,0.14,10.4,7.72s-4.66,16.42-10.4,19.73c-5.74,3.32-10.4-0.14-10.4-7.72
						C505.13,460.03,509.79,451.2,515.53,447.88z"/>
					<path id="XMLID_00000083770028597498060740000017393760081225723324_" class="st17" d="M519.99,459.03c0,3.79-2,8.02-4.46,9.44
						c-1.08,0.62-2.07,0.6-2.84,0.06c-0.99-0.68-1.62-2.22-1.62-4.35c0-3.79,1.99-8.02,4.46-9.44c0.67-0.39,1.3-0.53,1.87-0.45
						c0,0,0.01-0.01,0.01,0C518.93,454.51,519.99,456.27,519.99,459.03z"/>
					<path id="XMLID_00000129892726220584630780000010487505313928041101_" class="st15" d="M519.01,458.64c0,3.79-2,8.02-4.46,9.44
						c-0.67,0.38-1.29,0.53-1.87,0.45c-0.99-0.68-1.62-2.22-1.62-4.35c0-3.79,1.99-8.02,4.46-9.44c0.67-0.39,1.3-0.53,1.87-0.45
						c0,0,0.01-0.01,0.01,0C518.38,454.99,519.01,456.52,519.01,458.64z"/>
					<path id="XMLID_00000062907158646707681170000013975644152593589436_" class="st2" d="M531.88,452.17
						c0,9.8-5.44,21.15-12.73,27.43c4.32-4.7,8.79-12.56,10.37-20.06c1.38-6.56,0.86-15.96-4.76-18.34
						c-5.58-2.36-13.05,2.63-15.4,4.92c1.91-2.09,3.99-3.83,6.18-5.09C524.56,435.81,531.88,440.8,531.88,452.17z"/>
				</g>
				<path id="XMLID_00000165205128201055750570000017245523194310928818_" class="st8" d="M536.31,414.06
					c-3.31-7.83-17.13-15.96-23.03-13.01c-1.84,0.91-7.06,4.08-13.63,7.87c0,0-34.97,20.18-36.97,21.33c-2,1.15,1.31,3.06,3.51,2.02
					l0,0c0,11.9,0,17.16-4.33,22.03c-1.53,1.72-2.78,2.33-5.27,3.76c-2.49,1.43-29.17,16.75-31.38,18.03
					c-3.97,2.29-10.41,5.22-10.41,5.22l0,38.47l80.24-46.33c0-1.04,0.05-2.09,0.16-3.16c1.21-12.51,9.32-26.33,19.15-32
					c10.67-6.16,19.32-0.41,19.32,12.86l1.73-1C541.54,446.45,539.62,421.88,536.31,414.06z"/>
				<path id="XMLID_00000158721428792908024360000013623107328835640749_" class="st2" d="M518.95,400.74
					c-2.2-0.49-4.2-0.46-5.7,0.29c-1.84,0.91-7.06,4.08-13.64,7.87c0,0-3.75,2.16-8.86,5.1l-47.19-27.18c0,0,18.3-9.34,24.8-11.85
					C474.87,372.45,517.11,395.87,518.95,400.74z"/>
				<path id="XMLID_00000157293190508468223820000009822403379170177695_" class="st11" d="M455.56,385.69
					c0,0,11.44-7.18,14.03-7.38c2.59-0.2,14.55,4.62,21.61,8.82c7.05,4.2,16.47,10.02,16.94,11.63c0.48,1.61-9.53,6.42-12.31,8.08
					c0,0,4.21-3.46,5.64-4.74c1.43-1.28,3.54-2.47,3.16-3.34c-0.38-0.87-7.77-5.44-16.2-10.33c-8.43-4.89-17.13-8.29-18.84-8.07
					c-1.7,0.23-6.07,1.88-8.17,2.78C459.31,384.05,455.56,385.69,455.56,385.69z"/>
				<g id="XMLID_00000003789601986027252900000001828559389464265103_">
					<path id="XMLID_00000013168876161988331640000017290611500856561305_" class="st7" d="M416.04,483.79l56.55-32.63
						c0,0,1.43,1.38,1.41,3.12L416.04,483.79z"/>
					<path id="XMLID_00000082338779037485914490000015292835092772299186_" class="st7" d="M471.3,427.12
						c0.81,0.57,1.8,0.5,9.05-3.01c3.86-1.87,8.81-4.31,14.39-7.1c12.73-6.36,20.59-11,22.46-9.34c1.87,1.66-6.14,10.53-12.89,18.26
						s-18.55,17.59-25.29,21.83c0,0,1.5,1.75,1.87,3.37c0,0,28.9-17.03,38.13-25.21c9.23-8.18,14.29-15.79,7.18-19.75
						c-7.12-3.96-8.86-5.22-19.31,0.46c-6.5,3.53-18.84,10.11-27.21,14.75C470.49,426.5,470.67,426.68,471.3,427.12z"/>
				</g>
				<g id="XMLID_00000098215601988635491390000002584955277483031987_">
					<path id="XMLID_00000045592227027942300770000005307181686370925965_" class="st11" d="M414.58,386.28
						c0,0,44.81-12.62,47.99-10.75c3.18,1.87-39.13,20.57-39.13,20.57L414.58,386.28z"/>
					<path id="XMLID_00000140714566767813498330000008792744598099717803_" class="st11" d="M420.32,509.99
						c-1.6,0.85-1.93-2.59-2.84-9.28c-0.92-6.69-0.82-17.9-0.82-17.9c-1.1,5.02-0.64,17.17,0,24.95s2.11,7.06,3.67,5.91l47.31-28.84
						L420.32,509.99z"/>
					<path id="XMLID_00000093895100557567232130000016334830806916497339_" class="st11" d="M456.43,458.03
						c9.93-4.69,9.45-12.55,9.71-21.05c-0.02-1.47,0.01-3.01,0.01-4.71l45.65-22.06c1.02-0.49,1.96,0.8,1.17,1.61
						c-5.54,5.66-16.03,16.12-25.78,24.49C473.09,448.41,456.43,458.03,456.43,458.03z"/>
					<path id="XMLID_00000055692981756096547620000006554159217756808380_" class="st11" d="M474.85,449.54c0,0,2.31,2.01,1.84,7.3
						c-0.56,6.33-8.6,26.94-8.6,26.94s10.09-21.88,10.8-27.15c0.72-5.27-1.96-8.24-1.96-8.24L474.85,449.54z"/>
					<path id="XMLID_00000033340139508266987310000007407901414886561178_" class="st11" d="M506.88,442.48c0,0-0.93-4.53-2.23-6.23
						c-1.31-1.7-12.03-3.53-12.03-3.53s9.23,2.86,10.73,4.46C504.85,438.79,506.88,442.48,506.88,442.48z"/>
					<path id="XMLID_00000120529189154940819200000001898099692792766105_" class="st11" d="M486.75,416.33c0,0,3.73,0.36,6.14,3.01
						c0,0,0.13-2.02-4.8-3.79L486.75,416.33z"/>
					<path id="XMLID_00000167387025381669683610000004623438727496376459_" class="st11" d="M527.06,436.25c0,0,6.9-3.95,8.38-6.54
						c1.48-2.6,2.11-11.26,2.11-11.26s0.6,9.93-1.13,12.3C534.71,433.12,527.06,436.25,527.06,436.25z"/>
				</g>
				<g id="XMLID_00000127731320152567016180000008051113191929447349_">
					<path id="XMLID_00000040573384092469109390000002168294269385494678_" class="st9" d="M399.47,388.16v0.24
						c0,0.71,0.5,1.58,1.12,1.94l67.88,39.19c0.62,0.36,1.62,0.36,2.24,0l8.28-4.78c0.62-0.36,1.12-1.23,1.12-1.94v-0.24
						c0-0.71-0.5-1.58-1.12-1.94l-67.88-39.19c-0.62-0.36-1.62-0.36-2.24,0l-8.28,4.78C399.97,386.58,399.47,387.45,399.47,388.16z"
						/>
					<path id="XMLID_00000106842661043223861290000008938900908816401818_" class="st2" d="M400.59,387.51l67.88,39.19
						c0.62,0.36,1.62,0.36,2.24,0l8.28-4.78c0.62-0.36,0.62-0.94,0-1.29l-67.88-39.19c-0.62-0.36-1.62-0.36-2.24,0l-8.28,4.78
						C399.97,386.58,399.97,387.16,400.59,387.51z"/>
					<path id="XMLID_00000144304528359606494540000013956958084599079867_" class="st0" d="M480.1,422.57v0.24
						c0,0.72-0.5,1.59-1.12,1.94l-8.27,4.78c-0.31,0.17-0.72,0.27-1.12,0.27v-2.83c0.41,0,0.81-0.09,1.12-0.27l8.27-4.78
						c0.54-0.3,0.61-0.79,0.22-1.14C479.72,421.2,480.1,421.94,480.1,422.57z"/>
				</g>
			</g>
			<g id="Front_Car_00000178910726753186883170000005439724955200069026_">
				<g id="XMLID_00000072974961046037269740000016139879184920513691_">
					<path id="XMLID_00000121973590219757595700000017309279223486697631_" class="st2" d="M401.69,483.43
						c-6.76-5.03-21.7-15.82-37.28-24.91c-19.58-11.43-40.28-18.13-40.32-18.14c0.56,2.11,3.9,5.48,8.4,9.13
						c3.18,2.6,6.78,5.25,10.93,8.04c9.8,6.84,19.09,11.57,22.46,13.58c16.86,9.14,33,15.68,35.84,12.32
						C401.71,483.44,401.7,483.44,401.69,483.43z"/>
					<path id="XMLID_00000129178481350152803360000007542724725364479644_" class="st9" d="M401.69,483.43
						c-0.8-0.5-26.44-16.36-38.75-23.77c-11.73-7.05-35.91-17.95-38.84-19.28c2.49,0.79,20.73,6.71,40.32,18.14
						C379.99,467.61,394.93,478.4,401.69,483.43z"/>
				</g>
				<g id="XMLID_00000021086966675239405390000017498482641499354266_">
					<path id="XMLID_00000078020754631791373960000012908089916312458410_" class="st8" d="M328.2,433.19L328.2,433.19l-0.6,2.5
						c-1.38,2.59-4.44,5.86-5.54,5.59c-0.98-0.24-1.58-1.67-1.89-3.43v-0.02c-0.15-0.8-0.23-1.68-0.26-2.55
						c-0.1-2.77,1.14-9.24,4.99-10.96c0.88-0.39,1.67-0.08,2.28,0.51c0.51,0.5,0.91,1.19,1.11,1.84
						C328.94,428.61,328.29,433.09,328.2,433.19z"/>
					<path id="XMLID_00000059283346386280063510000003294494064208342461_" class="st5" d="M328.2,433.19L328.2,433.19
						c-0.2,1.03-0.6,2.5-0.6,2.5c-1.38,2.59-4.44,5.86-5.54,5.59c-0.98-0.24-1.58-1.67-1.89-3.43v-0.02
						c-0.15-0.8-0.23-1.68-0.26-2.55c-0.1-2.77,1.14-9.24,4.99-10.96c0.88-0.39,1.67-0.08,2.28,0.51c0.51,0.5,0.91,1.19,1.11,1.84
						C328.94,428.61,328.29,433.09,328.2,433.19z"/>
					<path id="XMLID_00000007402158820460495120000006927999011441820594_" class="st8" d="M327.6,435.7
						c-1.38,2.59-4.44,5.86-5.54,5.59c-0.98-0.24-1.58-1.67-1.89-3.43v-0.02c-0.15-0.8-0.23-1.68-0.26-2.55
						c-0.1-2.77,1.14-9.24,4.99-10.96c0.88-0.39,1.67-0.08,2.28,0.51l-0.53,1.19c-2.69,1.15-3.42,5.3-3.17,8.46
						C323.74,437.65,326.05,437.33,327.6,435.7z"/>
					<path id="XMLID_00000125595683411037934200000011624823263560369793_" class="st20" d="M327.6,435.7
						c-1.38,2.59-4.44,5.86-5.54,5.59c-0.98-0.24-1.58-1.67-1.89-3.43v-0.02c-0.15-0.8-0.23-1.68-0.26-2.55
						c-0.1-2.77,1.14-9.24,4.99-10.96c0.88-0.39,1.67-0.08,2.28,0.51l-0.53,1.19c-2.69,1.15-3.42,5.3-3.17,8.46
						C323.74,437.65,326.05,437.33,327.6,435.7z"/>
					<path id="XMLID_00000143599861817187185610000008699923102387535802_" class="st9" d="M328.29,426.67
						c-0.97-1.03-3.39-1.08-5.42,1.71s-2.7,7.59-2.71,9.45c-0.15-0.8-0.23-1.68-0.26-2.55c-0.1-2.77,1.14-9.24,4.99-10.96
						C326.51,423.6,327.83,425.24,328.29,426.67z"/>
				</g>
				<g id="XMLID_00000173860119148791426430000005398893224549218495_">
					<polygon id="XMLID_00000069398523296528525920000015964719900379436171_" class="st8" points="414.75,519.78 388,504.33 
						402.86,495.75 414.75,502.64 					"/>
					<polygon id="XMLID_00000045608342871801545340000007280782229229874599_" class="st20" points="414.75,519.78 388,504.33 
						402.86,495.75 414.75,502.64 					"/>
				</g>
				<g id="XMLID_00000075862584691102837240000016683521065759585702_">
					<path id="XMLID_00000150101690328379115280000008234005755835105974_" class="st9" d="M403.74,515.94l3.84-7.63l-9.14-5.29l0,0
						c-2.91-1.67-6.78-1.48-11.03,0.97c-9.03,5.21-16.34,18.65-16.35,30.03c0,5.95,2.01,10.16,5.22,12.06l0,0l0.13,0.07
						c0.01,0,0.01,0.01,0.02,0.01l9.37,5.41l4.05-8.05C397.52,537.66,403.44,526.08,403.74,515.94z"/>
					<path id="XMLID_00000123431568439066205040000001393677155670583221_" class="st21" d="M403.74,515.94l3.84-7.63l-9.14-5.29
						l0,0c-2.91-1.67-6.78-1.48-11.03,0.97c-9.03,5.21-16.34,18.65-16.35,30.03c0,5.95,2.01,10.16,5.22,12.06l0,0l0.13,0.07
						c0.01,0,0.01,0.01,0.02,0.01l9.37,5.41l4.05-8.05C397.52,537.66,403.44,526.08,403.74,515.94z"/>
					<path id="XMLID_00000031929781533789267730000015754804472605258387_" class="st9" d="M413.26,520.63
						c0,9.8-5.44,21.15-12.73,27.43c-0.01,0.01-0.02,0.02-0.03,0.03c-1.16,0.99-2.36,1.86-3.58,2.57
						c-9.03,5.22-16.35,0.22-16.34-11.15c0-8.59,4.18-18.37,10.11-24.88c0.01-0.01,0.04-0.03,0.05-0.05
						c1.91-2.09,3.99-3.83,6.18-5.09C405.95,504.27,413.26,509.26,413.26,520.63z"/>
					<path id="XMLID_00000096753817984791386930000009066799407778348214_" class="st2" d="M396.92,516.34
						c5.74-3.32,10.4,0.14,10.4,7.72c0,7.58-4.66,16.42-10.4,19.73c-5.74,3.32-10.4-0.14-10.4-7.72
						C386.52,528.49,391.17,519.66,396.92,516.34z"/>
					<path id="XMLID_00000050657516498238771450000012461276574998719649_" class="st17" d="M401.37,527.49c0,3.79-2,8.02-4.46,9.44
						c-1.08,0.62-2.07,0.6-2.84,0.06c-0.99-0.68-1.62-2.22-1.62-4.35c0-3.79,1.99-8.02,4.46-9.44c0.67-0.39,1.3-0.53,1.87-0.45
						c0,0,0.01-0.01,0.01,0C400.31,522.97,401.37,524.74,401.37,527.49z"/>
					<path id="XMLID_00000124143972830306736730000001126160718027495862_" class="st15" d="M400.4,527.11c0,3.79-2,8.02-4.46,9.44
						c-0.67,0.38-1.3,0.53-1.87,0.45c-0.99-0.68-1.62-2.22-1.62-4.35c0-3.79,1.99-8.02,4.46-9.44c0.67-0.39,1.3-0.53,1.87-0.45
						c0,0,0.01-0.01,0.01,0C399.77,523.45,400.4,524.98,400.4,527.11z"/>
					<path id="XMLID_00000005255013306410073930000001538688944797921704_" class="st2" d="M413.26,520.63
						c0,9.8-5.44,21.15-12.73,27.43c4.32-4.7,8.79-12.56,10.37-20.06c1.38-6.56,0.86-15.96-4.76-18.34
						c-5.58-2.36-13.05,2.63-15.4,4.92c1.91-2.09,3.99-3.83,6.18-5.09C405.95,504.27,413.26,509.26,413.26,520.63z"/>
				</g>
				<path id="XMLID_00000078752304578546726460000017122438981747631754_" class="st8" d="M414.8,481.31c0,0-1.55-0.3-1.19-1.65
					c0,0-11.83,3.69-11.9,3.77c-2.83,3.36-18.98-3.17-35.84-12.32c-3.37-2.01-12.65-6.73-22.46-13.57
					c-4.15-2.79-7.74-5.44-10.93-8.03c-3.36-2.74-5.87-5.43-7.39-7.3c-0.54-0.66-1.65-2.46-0.99-3.94
					c-33.43,23.78-51.75,33.62-47.83,60.74c0,0,0.19,5.02,0.54,10.12c0.87,12.64,8.09,16.12,20.22,23.14l11.58,6.68
					c9.32,5.38,24.57,9.77,38.31,9.33c15.48-0.5,29.03-6.4,29.46-9.99c0.18-1.59,0.47-3.18,0.86-4.79c0.98-4,2.55-7.98,4.57-11.67
					c3.09-5.63,7.22-10.56,11.82-13.76c0.6-0.42,1.22-0.81,1.83-1.17c9.95-5.75,18.15-1.12,19.2,10.29
					c0.08,0.83,0.11,1.68,0.11,2.58L414.8,481.31z"/>
				<g id="XMLID_00000116196863477782961480000013945521077234742719_">
					<path id="XMLID_00000049182926762789933850000007371491573075059373_" class="st9" d="M392.1,483.01l-48.73,16
						c-16.99-4.09-29.37-11.89-38.56-22.27l27.05-27.75l0,0c0.21,0.17,0.41,0.35,0.63,0.52c3.18,2.6,6.78,5.25,10.93,8.04
						c9.8,6.84,19.09,11.57,22.46,13.58C375.68,476.44,385.26,480.88,392.1,483.01z"/>
					<g id="XMLID_00000105420113747761047290000007383032619562336925_">
						<path id="XMLID_00000179636098875089152100000002855854011199962505_" class="st0" d="M311.09,471.88c0,0,0.61,0.44,1.64,1.25
							c0.51,0.41,1.15,0.87,1.86,1.43c0.71,0.56,1.54,1.15,2.42,1.81c0.88,0.67,1.88,1.33,2.89,2.09c1.05,0.7,2.13,1.47,3.29,2.22
							c0.58,0.37,1.15,0.77,1.75,1.14c0.6,0.37,1.21,0.74,1.82,1.13c1.23,0.74,2.47,1.52,3.77,2.21c1.26,0.74,2.55,1.43,3.83,2.11
							c1.29,0.63,2.53,1.34,3.78,1.91c1.24,0.59,2.43,1.19,3.59,1.7c1.15,0.54,2.25,1.01,3.25,1.47c1.01,0.46,1.95,0.84,2.78,1.21
							c0.83,0.36,1.56,0.67,2.16,0.92c1.2,0.51,1.88,0.83,1.88,0.83s-0.74-0.11-2.03-0.34c-0.64-0.12-1.43-0.25-2.31-0.48
							c-0.89-0.21-1.9-0.42-2.97-0.75c-1.08-0.31-2.26-0.63-3.47-1.08c-0.61-0.21-1.24-0.43-1.88-0.65
							c-0.64-0.23-1.27-0.51-1.93-0.77c-0.66-0.26-1.31-0.55-1.97-0.84c-0.66-0.29-1.34-0.58-2-0.92c-1.32-0.67-2.67-1.34-3.98-2.09
							c-1.31-0.74-2.58-1.56-3.83-2.35c-1.24-0.81-2.42-1.67-3.54-2.53c-1.15-0.82-2.16-1.74-3.16-2.56
							c-0.96-0.86-1.88-1.67-2.66-2.48c-0.81-0.78-1.52-1.53-2.13-2.21c-0.62-0.67-1.15-1.27-1.55-1.78
							C311.54,472.48,311.09,471.88,311.09,471.88z"/>
						<path id="XMLID_00000042701405650861191230000005981025135176439462_" class="st0" d="M320.51,464.59c0,0,0.67,0.44,1.83,1.23
							c1.15,0.78,2.79,1.9,4.77,3.25c0.98,0.68,2.07,1.36,3.19,2.12c1.14,0.73,2.35,1.5,3.6,2.3c0.63,0.39,1.27,0.79,1.91,1.19
							c0.66,0.39,1.32,0.78,1.98,1.19c1.32,0.81,2.69,1.6,4.06,2.37c0.68,0.39,1.37,0.78,2.05,1.17c0.69,0.37,1.38,0.75,2.06,1.12
							c1.37,0.72,2.71,1.46,4.03,2.14c1.33,0.66,2.59,1.34,3.81,1.93c1.22,0.6,2.38,1.17,3.44,1.7c2.15,1.04,3.94,1.9,5.2,2.51
							c1.26,0.61,1.98,0.98,1.98,0.98s-0.78-0.16-2.15-0.49c-0.68-0.16-1.51-0.36-2.45-0.65c-0.94-0.27-2-0.56-3.14-0.96
							c-1.14-0.38-2.38-0.79-3.66-1.3c-1.29-0.48-2.64-1.03-4.02-1.64c-0.69-0.29-1.38-0.63-2.09-0.95
							c-0.71-0.32-1.42-0.65-2.12-1.03c-0.7-0.36-1.41-0.73-2.12-1.1c-0.7-0.39-1.41-0.77-2.11-1.16c-1.39-0.81-2.77-1.64-4.1-2.49
							c-1.34-0.84-2.61-1.75-3.84-2.62c-1.24-0.86-2.37-1.77-3.46-2.63c-1.07-0.87-2.08-1.7-2.97-2.51
							c-0.91-0.79-1.71-1.54-2.41-2.23c-0.71-0.68-1.31-1.28-1.78-1.79C321.04,465.19,320.51,464.59,320.51,464.59z"/>
						<path id="XMLID_00000007407935099383706850000015390635880646257824_" class="st0" d="M329.93,457.3c0,0,0.74,0.43,2.01,1.22
							c1.26,0.79,3.07,1.91,5.24,3.26c1.08,0.67,2.25,1.39,3.49,2.16c1.24,0.75,2.56,1.55,3.91,2.37c1.36,0.81,2.77,1.64,4.21,2.49
							c1.42,0.86,2.9,1.68,4.37,2.52c1.47,0.84,2.93,1.68,4.4,2.47c1.46,0.8,2.9,1.59,4.29,2.35c2.81,1.49,5.42,2.89,7.67,4.08
							c2.26,1.19,4.14,2.19,5.46,2.88c1.32,0.7,2.07,1.13,2.07,1.13s-0.83-0.22-2.26-0.65c-0.72-0.21-1.59-0.48-2.57-0.83
							c-0.99-0.33-2.1-0.71-3.3-1.18c-0.6-0.23-1.23-0.46-1.87-0.71c-0.64-0.27-1.3-0.54-1.98-0.82c-1.36-0.56-2.78-1.19-4.23-1.87
							c-1.44-0.71-2.96-1.38-4.44-2.19c-1.5-0.78-3-1.6-4.5-2.43c-1.47-0.87-2.96-1.73-4.38-2.63c-1.44-0.87-2.81-1.82-4.14-2.71
							c-1.33-0.9-2.58-1.81-3.76-2.69c-1.18-0.88-2.28-1.73-3.27-2.55c-1.01-0.8-1.9-1.56-2.68-2.25c-0.79-0.68-1.47-1.29-2.01-1.8
							C330.54,457.91,329.93,457.3,329.93,457.3z"/>
					</g>
				</g>
				<path id="XMLID_00000128486603605352396350000012396678750174023318_" class="st22" d="M346.14,509.12
					c-4.33,1.97-20.22,10.89-21.73,13.54c-1.51,2.64,11.05,3.49,17.96,2.65c5.46-0.66,16.78-7.58,18-9.57
					C361.86,513.33,350.44,507.17,346.14,509.12z"/>
				<path id="XMLID_00000117661281602200284560000000605686195433887923_" class="st22" d="M280.27,496.98
					c2.24,0.9,6.26-5.9,8.97-10.75c2.71-4.85,4.2-6.72,4.34-9.04c0.14-2.32-3.58-6.48-6.29-6.52c-2.51-0.04-8.59,8.85-8.84,16.69
					C278.22,494.06,279.25,496.57,280.27,496.98z"/>
				<g id="XMLID_00000036932227641525045530000001865713258635875499_">
					<path id="XMLID_00000083057176793145228400000004550214102938269315_" class="st23" d="M346.14,509.12
						c-4.33,1.97-20.22,10.89-21.73,13.54c-1.51,2.64,11.05,3.49,17.96,2.65c5.46-0.66,16.78-7.58,18-9.57
						C361.86,513.33,350.44,507.17,346.14,509.12z"/>
					<path id="XMLID_00000091712221699198251760000013858405630092486036_" class="st23" d="M354.84,510.52
						c-3.81-1.38-7.27,0.56-15.27,5.13c-8,4.56-13.42,8.18-11.78,9.27c-2.46-0.49-3.95-1.23-3.37-2.25
						c1.51-2.65,17.4-11.57,21.72-13.54C348.16,508.21,351.75,509.08,354.84,510.52z"/>
					<path id="XMLID_00000183938098168100699990000015063972906171221379_" class="st23" d="M360.37,515.74
						c-1.22,1.99-12.54,8.92-18,9.57c-1.6,0.19-3.49,0.29-5.44,0.3c2.81-0.4,9.94-4.51,14.53-7c4.4-2.4,8.27-4.79,6.83-6.09
						C359.93,513.72,360.87,514.94,360.37,515.74z"/>
				</g>
				<path id="XMLID_00000143609492840104827770000005664329467575083177_" class="st23" d="M280.27,496.98
					c2.24,0.9,6.26-5.9,8.97-10.75c2.71-4.85,4.2-6.72,4.34-9.04c0.14-2.32-3.58-6.48-6.29-6.52c-2.51-0.04-8.59,8.85-8.84,16.69
					C278.22,494.06,279.25,496.57,280.27,496.98z"/>
				<path id="XMLID_00000178199820736591795570000006170975156216918436_" class="st23" d="M279.76,484.83
					c-0.6,1.69-1.16,3.94-1.31,5.86c-0.04-0.98-0.05-2.08-0.01-3.34c0.25-7.85,6.34-16.74,8.84-16.69c0.67,0.01,1.41,0.28,2.13,0.71
					c-1.26-0.44-2.43,0.52-3.42,1.9C284.96,474.68,280.74,482.06,279.76,484.83z"/>
				<path id="XMLID_00000005252613063089611430000016729054054033790117_" class="st23" d="M293.57,477.19
					c-0.14,2.32-1.63,4.19-4.33,9.04c-2.71,4.86-6.73,11.66-8.97,10.75c-0.6-0.24-1.18-1.17-1.53-3.22c0.81,1.83,1.93,1.43,3.1,0.4
					c1.17-1.03,6.6-9.69,8.59-13.58c1.98-3.89,1.7-6.77,0.35-8.19C292.39,473.8,293.65,475.82,293.57,477.19z"/>
				<g id="XMLID_00000036224373223415752800000014440750871020272274_">
					<path id="XMLID_00000142891944636839997710000002829021079086243732_" class="st11" d="M359.6,518.29
						c0,0,10.75,0.32,18.84,9.05C372.29,523.19,366.02,520.15,359.6,518.29z"/>
					<path id="XMLID_00000149375750097642190290000013327293777874615703_" class="st11" d="M326.86,447.81
						c0,0-24.34,19.04-37.63,41.96L326.86,447.81z"/>
					<path id="XMLID_00000114033520734318435500000000530223328256103330_" class="st11" d="M328.58,511.78
						c0,0,29.78-16.82,66.18-24.42L328.58,511.78z"/>
					<path id="XMLID_00000109747616660504100820000013372247174734306220_" class="st11" d="M329.93,515.35
						c-16.76-6.36-29.95-14.93-41.39-24.6c0,0,7.24,8.93,20.69,16.23C322.68,514.27,329.93,515.35,329.93,515.35z"/>
					<path id="XMLID_00000071558419256900355850000008288864750909337732_" class="st11" d="M276.22,495.31
						c2.02,5.8,9.14,14.62,19.7,20.82c10.56,6.2,24.25,14.75,39.79,15.25c15.53,0.51,26.25-11.02,26.25-11.02s-8,12.76-26.25,13.16
						c-18.25,0.4-29.48-8.33-40.32-14.91C284.11,511.78,277.9,505.07,276.22,495.31z"/>
				</g>
				<path id="XMLID_00000125574364963833371370000002701242032895503290_" class="st2" d="M308.62,538.95
					c3.1,1.79,6.86,3.46,11,4.89c-2.12-0.83-2.19-2.52-2.43-5.33c-0.27-3.16,0.27-4.62-3.42-6.98
					c-3.69-2.36-24.49-13.88-27.58-15.92c-3.03-2-3.91,3.07-6.43,3.59c3.3,5.29,9.19,8.39,17.27,13.07L308.62,538.95z"/>
				<g id="XMLID_00000005971575401132234350000017747357898675624092_">
					<path id="XMLID_00000170996232728879446920000010008698615342759349_" class="st7" d="M374.9,523.28
						c3.7-9.38,10.7-16.75,16.54-18.78c-6.33,0.5-14.73,7-17.99,17.88C373.46,522.38,374.4,522.95,374.9,523.28z"/>
					<path id="XMLID_00000005236786202811459480000017624552702267557545_" class="st7" d="M372.87,524.65
						c-0.77,3.5-1.02,7.41-0.54,11.67c0-3.84,0.66-7.48,1.84-11L372.87,524.65z"/>
					<path id="XMLID_00000168085819459896071660000006978863370298532006_" class="st7" d="M328.45,516.8
						c-16.76-6.36-29.95-14.93-41.39-24.6c0,0,7.24,8.93,20.69,16.23C321.21,515.72,328.45,516.8,328.45,516.8z"/>
					<path id="XMLID_00000025406764874728814910000012079685593150520479_" class="st7" d="M293.3,473.41
						c-1.03-1.7-2.6-2.8-2.87-3.59c-0.59-1.68,33.29-23.86,34.61-23.99c1.32-0.13-23.63,22.09-26.85,26.55
						C294.97,476.84,294.14,474.79,293.3,473.41z"/>
					<path id="XMLID_00000008849436391041153130000004265590388263440814_" class="st7" d="M358.54,509.99
						c4.2,2.37,4.84,4.98,8.09,2.41c3.25-2.58,26.82-19.47,32.39-21.86c6.28-2.69,2.47-3.36-13.11,2.39
						c-14.09,5.2-32.24,11.96-33.29,13.41C351.58,507.8,355.08,508.04,358.54,509.99z"/>
					<path id="XMLID_00000153687515001586997000000000433798647997532035_" class="st7" d="M342.4,499.56
						c-15.37-2.59-29.13-12.39-38.37-22.38c0,0,5.3,9.05,17.75,15.81S342.4,499.56,342.4,499.56z"/>
				</g>
				<g id="XMLID_00000157288833362904000100000012845512167045064101_">
					<path id="XMLID_00000164515774264344441660000010857199117743950991_" class="st9" d="M419.94,478.98
						c-2.48,1.43-10.92,5.83-14.03,5.83c-1.55,0-5.09,1.73-13.81-1.8c5.56,1.66,10.68,1.42,12.61-1.93l5.5-31.87
						c0.15-0.73,0.27-1.41,0.28-2.09v-0.23c-0.05-2.08-1.34-4.04-3.43-4.84c-18.58-7.13-34.66-15.31-47.5-24.88
						c-3.22-2.41-6.24-4.89-9.05-7.49l-0.03-0.03c-0.11-0.1-0.24-0.21-0.36-0.29c-0.23-0.17-0.48-0.33-0.74-0.45
						c-0.08-0.03-0.15-0.07-0.22-0.09c-0.09-0.04-0.19-0.08-0.28-0.11c-0.15-0.05-0.29-0.1-0.45-0.14c-0.1-0.03-0.22-0.06-0.33-0.08
						c-0.02,0-0.03-0.01-0.05-0.01c-0.07-0.02-0.14-0.03-0.22-0.03c-0.13-0.02-0.27-0.03-0.4-0.04c-1.61-0.11-3.29,0.47-4.33,1.72
						c-7.38,8.84-18.94,28.01-19,28.18c-0.73,1.68,0.76,3.59,0.94,3.85c0.04,0.05,1.4,1.74,2.86,3.21c1.84,1.86,3.88,3.59,3.96,3.66
						c-5.58-2.89-9.13-6.79-9.52-9.57c0.1-0.28,0.4-0.65,0.66-1.14c5.97-10.92,18.78-28.55,20.76-30.29c0,0,0.02-0.01,0.02-0.02
						h0.01c0.11-0.1,0.24-0.21,0.35-0.31c3.08-2.68,7.61-2.83,10.86-0.35c5.55,4.25,14.89,11.02,24.38,16.28
						c10.24,5.68,24.23,11.59,32.46,14.92c3.95,1.61,5.51,5.64,4.49,9.79c-0.5,2.05-1.11,4.14-1.99,7.09
						c-2.55,8.54-4.05,23.16-4.71,25.57c-0.32,1.19,3.91,0.3,4.71,0.3C415.49,481.27,417.56,480.29,419.94,478.98z"/>
					<path id="XMLID_00000021103877301019809610000009575047427454287784_" class="st24" d="M410.48,447.11
						c0,0.68-0.1,1.36-0.28,2.09C410.35,448.47,410.48,447.79,410.48,447.11z"/>
					<path id="XMLID_00000085213591720053763220000004334474178642738861_" class="st24" d="M410.48,447.11
						c0,0.68-0.1,1.36-0.28,2.09C410.35,448.47,410.48,447.79,410.48,447.11z"/>
					<path id="XMLID_00000155863052530077265910000013131146829740338358_" class="st24" d="M410.48,447.11
						c0,0.68-0.1,1.36-0.28,2.09C410.35,448.47,410.48,447.79,410.48,447.11z"/>
					<path id="XMLID_00000147906360994332032510000005224256032586491315_" class="st25" d="M410.48,446.87
						c0.03,0.76-0.07,1.52-0.27,2.33l-5.5,31.87c-1.93,3.36-7.05,3.59-12.61,1.93c-17.32-5.16-46.37-23.77-52.06-27.77
						c-3.07-2.16-5.84-4.26-8.2-6.22c-1.57-1.31-2.93-2.65-4.08-3.81c-3.04-3.06-4.51-5.45-3.66-6.92
						c1.43-2.53,7.71-12.65,13.22-20.53c2.03-2.88,4.04-5.56,5.78-7.65c1.77-2.12,5.33-2.33,7.37-0.47
						c0.01,0.01,0.03,0.03,0.03,0.03c2.8,2.6,5.83,5.08,9.05,7.49c12.84,9.57,28.92,17.75,47.5,24.88
						C409.14,442.83,410.43,444.79,410.48,446.87z"/>
					<path id="XMLID_00000011736900948863552290000006449844299231767727_" class="st26" d="M334.59,451.21
						c1.68,1.31,3.5,2.65,5.45,4.03c1.79,1.26,5.89,3.97,11.21,7.24c7.27-12.14,19.98-30.72,23.68-35.35
						c-5.26-2.99-10.15-6.14-14.66-9.45C348.1,428.95,334.66,451.09,334.59,451.21z"/>
					<path id="XMLID_00000181806031884730660690000006091775122611332781_" class="st26" d="M354.06,464.18
						c1.32,0.8,2.69,1.62,4.11,2.45c4.16-6.9,13.36-21.82,23.26-35.98c-1.28-0.66-2.54-1.33-3.78-2.01
						C374.47,432.74,364.87,445.59,354.06,464.18z"/>
					<path id="XMLID_00000128448195321734482030000005989255107432878265_" class="st27" d="M407.06,442.03
						c-18.58-7.13-34.66-15.31-47.5-24.88c-3.22-2.41-6.24-4.89-9.04-7.49c-0.01-0.01-0.03-0.03-0.03-0.03
						c-0.09-0.08-0.2-0.14-0.3-0.21c3.32,4.19,12.44,14.07,29.82,22.56c17.48,8.54,26.42,11.24,27.59,14.37
						c1.17,3.13,0.46,3.71-0.91,14.21c-0.87,6.7-2.48,17.86-4.76,19.9c-2.21,1.97-6.68,3.23-29.21-5.78
						c6.91,3.56,13.78,6.66,19.41,8.34c5.56,1.66,10.68,1.42,12.61-1.93l5.5-31.87c0.2-0.8,0.3-1.57,0.27-2.33
						C410.43,444.79,409.14,442.83,407.06,442.03z"/>
				</g>
				<g id="XMLID_00000021801499919770361330000010668502762319107745_">
					<path id="XMLID_00000103953216321972102240000010755292685640333441_" class="st8" d="M425.43,480.18
						c-1.24,5.89-7.76,7.13-12.65,6.99c-2.59-0.07-4.72-0.55-5.37-0.92c-1.89-1.09-1.02-3.35-0.01-4.66
						c1.71-2.22,9.39-6.67,14.22-6.82C424.44,474.67,426.29,476.05,425.43,480.18z"/>
					<path id="XMLID_00000094577324011390883940000008304461853208127657_" class="st5" d="M425.43,480.18
						c-1.24,5.89-7.76,7.13-12.65,6.99c-2.59-0.07-4.72-0.55-5.37-0.92c-1.89-1.09-1.02-3.35-0.01-4.66
						c1.71-2.22,9.39-6.67,14.22-6.82C424.44,474.67,426.29,476.05,425.43,480.18z"/>
					<path id="XMLID_00000029727653385070486600000012942844790870276284_" class="st8" d="M425.43,480.18
						c-1.24,5.89-7.76,7.13-12.65,6.99c-2.59-0.07-4.72-0.55-5.37-0.92c-1.89-1.09-1.02-3.35-0.01-4.66
						c-0.95,1.8,4.08,2.91,8.57,1.3c4.48-1.62,7.83-5.08,5.65-8.12C424.44,474.67,426.29,476.05,425.43,480.18z"/>
					<path id="XMLID_00000096054284802132126330000001888230748095648424_" class="st20" d="M425.43,480.18
						c-1.24,5.89-7.76,7.13-12.65,6.99c-2.59-0.07-4.72-0.55-5.37-0.92c-1.89-1.09-1.02-3.35-0.01-4.66
						c-0.95,1.8,4.08,2.91,8.57,1.3c4.48-1.62,7.83-5.08,5.65-8.12C424.44,474.67,426.29,476.05,425.43,480.18z"/>
					<path id="XMLID_00000047753225592909145890000007695766967727656586_" class="st9" d="M425.43,480.18
						c-1.24,5.89-7.76,7.13-12.65,6.99c4.87-0.14,8.74-2.94,10.21-6c1.46-3.05,0.35-6.01-1.37-6.4
						C424.44,474.67,426.29,476.05,425.43,480.18z"/>
				</g>
			</g>
		</g>
		<g id="Arm_00000168826996076234266360000002565610519378138815_">
			<path id="XMLID_00000103232870294865598070000011447397536662003125_" class="st2" d="M447.85,468.13
				c-0.52,0.42-3.35,1.4-4.98,1.62c-1.39,0.19-1.72,1.56-0.43,2.13c1.28,0.58,2.19,0.19,2.06,0.66c-0.13,0.47-2.02,1.65-3.79,2.55
				c-1.6,0.81-4.05,3.05-0.55,5.31c3.42,2.21,7.54-0.19,9.61-1.63c2.07-1.44,4.39-4.94,4.83-6.92L447.85,468.13z"/>
			<path id="XMLID_00000124844332406285242620000017115588280625007550_" class="st9" d="M448.76,466.23
				c-0.95-0.34-1.68,0.94-1.55,2.13c0.12,1.13,0.87,2.5,2.21,3.44c1.55,1.09,3.62,1.26,5.02,0.48c1.59-0.89,1.07-2.2,1.07-2.2
				L448.76,466.23z"/>
			<path id="XMLID_00000182513961163483225640000004727231347923912835_" class="st28" d="M448.01,439.48
				c2.61,1.08,9.16,6.24,11.47,8.39c2.26,2.11,4.23,4.87,4.51,6.64c0.23,1.48-1.54,7.68-8.48,15.57c-0.59,0.67-1.7,1.38-2.56,1.38
				c-2.19,0-3.6-1.08-4.29-2.74c-0.28-0.68-0.27-1.86,0.11-2.49c1.35-2.25,4.9-7.72,5.03-9.68c-0.98-2.16-4.96-3.92-7.15-4.97
				c0,0-5.41-0.98-5.49-6.91S446.57,438.1,448.01,439.48z"/>
			<path id="XMLID_00000096776226498328223310000004347566107941591706_" class="st0" d="M448.01,439.48
				c-0.59-0.5-1.52-0.68-2.24-0.45c-2.69,0.86-4.12,3.99-3.08,8.02c0.69,2.64,1.84,3.72,3.94,4.53c-2.67,0.63-5.58-1.09-6.49-4.6
				c-1.05-4.03,0.86-8.53,4.27-9.41C445.59,437.26,447.42,437.93,448.01,439.48z"/>
		</g>
	</g>
</g>
<g id="Stars_1_">
</g>
</svg>
