<?xml version="1.0" encoding="utf-8"?>
<!-- Generator: Adobe Illustrator 26.0.3, SVG Export Plug-In . SVG Version: 6.00 Build 0)  -->
<svg version="1.1" xmlns="http://www.w3.org/2000/svg" xmlns:xlink="http://www.w3.org/1999/xlink" x="0px" y="0px"
	 viewBox="0 0 487.1 335.79" style="enable-background:new 0 0 487.1 335.79;" xml:space="preserve">
<style type="text/css">
	.st0{opacity:0.65;}
	.st1{fill:#FFFFFF;}
</style>
<g id="Background_Simple">
</g>
<g id="Stars">
	<g class="st0">
		<path class="st1" d="M272.98,33.87c-5.89,0.66-6.43,1.2-7.1,7.1c-0.66-5.89-1.2-6.43-7.1-7.1c5.89-0.66,6.43-1.2,7.1-7.1
			C266.55,32.66,267.09,33.2,272.98,33.87z"/>
	</g>
	<g class="st0">
		<path class="st1" d="M236.46,86.8c-5.89,0.66-6.43,1.2-7.1,7.1c-0.66-5.89-1.2-6.43-7.1-7.1c5.89-0.66,6.43-1.2,7.1-7.1
			C230.03,85.6,230.56,86.14,236.46,86.8z"/>
	</g>
	<g class="st0">
		<path class="st1" d="M334.91,12.13c-3.95,0.45-4.31,0.81-4.75,4.75c-0.45-3.95-0.81-4.31-4.75-4.75c3.95-0.45,4.31-0.81,4.75-4.75
			C330.61,11.33,330.97,11.69,334.91,12.13z"/>
	</g>
	<g class="st0">
		<path class="st1" d="M482.33,230.4c-5.89,0.66-6.43,1.2-7.1,7.1c-0.66-5.89-1.2-6.43-7.1-7.1c5.89-0.66,6.43-1.2,7.1-7.1
			C475.9,229.2,476.43,229.74,482.33,230.4z"/>
	</g>
	<g class="st0">
		<path class="st1" d="M447.7,176.79c-5.89,0.66-6.43,1.2-7.1,7.1c-0.66-5.89-1.2-6.43-7.1-7.1c5.89-0.66,6.43-1.2,7.1-7.1
			C441.27,175.58,441.81,176.12,447.7,176.79z"/>
	</g>
	<g class="st0">
		<path class="st1" d="M448.18,300.44c-3.68,0.41-4.01,0.75-4.43,4.43c-0.41-3.68-0.75-4.01-4.43-4.43
			c3.68-0.41,4.01-0.75,4.43-4.43C444.17,299.69,444.5,300.03,448.18,300.44z"/>
	</g>
	<g class="st0">
		<path class="st1" d="M486.78,279.79c-3.68,0.41-4.01,0.75-4.43,4.43c-0.41-3.68-0.75-4.01-4.43-4.43
			c3.68-0.41,4.01-0.75,4.43-4.43C482.77,279.03,483.1,279.37,486.78,279.79z"/>
	</g>
	<g class="st0">
		<path class="st1" d="M382.86,224.86c-3.68,0.41-4.01,0.75-4.43,4.43c-0.41-3.68-0.75-4.01-4.43-4.43
			c3.68-0.41,4.01-0.75,4.43-4.43C378.84,224.11,379.18,224.45,382.86,224.86z"/>
	</g>
	<g class="st0">
		<path class="st1" d="M344.73,154.74c-3.68,0.41-4.01,0.75-4.43,4.43c-0.41-3.68-0.75-4.01-4.43-4.43
			c3.68-0.41,4.01-0.75,4.43-4.43C340.72,153.99,341.05,154.32,344.73,154.74z"/>
	</g>
	<g class="st0">
		<path class="st1" d="M473.42,108.79c-5.89,0.66-6.43,1.2-7.1,7.1c-0.66-5.89-1.2-6.43-7.1-7.1c5.89-0.66,6.43-1.2,7.1-7.1
			C466.98,107.58,467.52,108.12,473.42,108.79z"/>
	</g>
	<g class="st0">
		<g>
			<circle class="st1" cx="469.49" cy="158.77" r="3.17"/>
		</g>
		<g>
			<circle class="st1" cx="409.91" cy="223.3" r="3.17"/>
		</g>
		<g>
			<circle class="st1" cx="356.12" cy="80.56" r="3.17"/>
		</g>
		<g>
			<circle class="st1" cx="373.15" cy="19.96" r="3.17"/>
		</g>
		<g>
			<circle class="st1" cx="260.65" cy="83.03" r="1.58"/>
		</g>
		<g>
			<circle class="st1" cx="214.07" cy="37.39" r="1.58"/>
		</g>
		<g>
			<circle class="st1" cx="278.08" cy="1.58" r="1.58"/>
		</g>
		<g>
			<circle class="st1" cx="398.77" cy="301.79" r="1.58"/>
		</g>
		<g>
			<circle class="st1" cx="285.35" cy="150.79" r="1.58"/>
		</g>
		<g>
			<circle class="st1" cx="400.77" cy="169.79" r="1.58"/>
		</g>
		<g>
			<circle class="st1" cx="467.77" cy="317.79" r="1.58"/>
		</g>
		<g>
			<circle class="st1" cx="413.35" cy="334.2" r="1.58"/>
		</g>
		<g>
			<g>
				<path class="st1" d="M445.68,54.5c-3.95,0.44-4.31,0.81-4.75,4.75c-0.44-3.95-0.81-4.31-4.75-4.75
					c3.95-0.45,4.31-0.81,4.75-4.75C441.38,53.69,441.74,54.05,445.68,54.5z"/>
			</g>
			<g>
				<path class="st1" d="M390.74,33.07c-1.91-0.26-3.86-0.48-5.79-0.63l0.08-1c1.94,0.15,3.91,0.37,5.84,0.64L390.74,33.07z"/>
			</g>
			<g>
				<path class="st1" d="M439.78,54.09c-0.17-0.15-17.17-15.15-44.3-20.25l0.19-0.98c27.42,5.16,44.62,20.34,44.79,20.49
					L439.78,54.09z"/>
			</g>
		</g>
		<g>
			<path class="st1" d="M419.33,96.79c-8.29,0.93-9.05,1.69-9.98,9.98c-0.93-8.29-1.69-9.05-9.98-9.98
				c8.29-0.93,9.05-1.69,9.98-9.98C410.29,95.09,411.04,95.85,419.33,96.79z"/>
		</g>
	</g>
	<g class="st0">
		<path class="st1" d="M122.66,8.28c-0.66,5.89-1.2,6.43-7.1,7.1c5.89,0.66,6.43,1.2,7.1,7.1c0.66-5.89,1.2-6.43,7.1-7.1
			C123.86,14.71,123.32,14.17,122.66,8.28z"/>
	</g>
	<g class="st0">
		<path class="st1" d="M176.27,42.9c-0.66,5.89-1.2,6.43-7.1,7.1c5.89,0.66,6.43,1.2,7.1,7.1c0.66-5.89,1.2-6.43,7.1-7.1
			C177.48,49.33,176.94,48.8,176.27,42.9z"/>
	</g>
	<g class="st0">
		<path class="st1" d="M30.87,39.05c-0.41,3.68-0.75,4.01-4.43,4.43c3.68,0.41,4.01,0.75,4.43,4.43c0.41-3.68,0.75-4.01,4.43-4.43
			C31.62,43.06,31.29,42.73,30.87,39.05z"/>
	</g>
	<g class="st0">
		<path class="st1" d="M68.84,9.09c-0.41,3.68-0.75,4.01-4.43,4.43c3.68,0.41,4.01,0.75,4.43,4.43c0.41-3.68,0.75-4.01,4.43-4.43
			C69.6,13.1,69.26,12.77,68.84,9.09z"/>
	</g>
	<g class="st0">
		<circle class="st1" cx="194.29" cy="21.11" r="3.17"/>
	</g>
	<g class="st0">
		<circle class="st1" cx="107.32" cy="51.07" r="3.17"/>
	</g>
	<g class="st0">
		<circle class="st1" cx="5" cy="22.47" r="1.58"/>
	</g>
</g>
<g id="Mountains">
</g>
<g id="Characters">
</g>
<g id="Plants">
</g>
</svg>
